<?xml version="1.0" encoding="UTF-8" standalone="no"?><!DOCTYPE svg PUBLIC "-//W3C//DTD SVG 1.1//EN" "http://www.w3.org/Graphics/SVG/1.1/DTD/svg11.dtd"><svg width="100%" height="100%" viewBox="0 0 230 179" version="1.1" xmlns="http://www.w3.org/2000/svg" xmlns:xlink="http://www.w3.org/1999/xlink" xml:space="preserve" style="fill-rule:evenodd;clip-rule:evenodd;stroke-linejoin:round;stroke-miterlimit:1.41421;"><path d="M115.901,146.914l4.26,16.573c0,0 0.002,2.843 -1.893,6.154c-1.894,3.316 -9.472,3.316 -9.472,3.316c0,0 8.995,3.313 13.255,0.945c4.282,-2.376 7.824,-1.167 11.592,0.042c2.428,0.78 4.952,1.559 7.828,1.378c7.576,-0.471 8.049,-0.943 -2.367,-4.731c-10.42,-3.79 -12.313,-1.423 -12.313,-1.423l-0.947,-20.835c-0.633,-1.262 -4.843,-1.472 -7.578,-1.472c-1.366,0 -2.365,0.053 -2.365,0.053Z" style="fill:url(#_Linear1);fill-rule:nonzero;"/><path d="M214.825,93.193l14.248,7.316l-15.715,-5.754c-4.117,4.186 -8.638,7.116 -12.15,9.011c9.607,-0.439 28.46,-1.955 28.46,-1.955l-5.246,-32.205c-0.39,10.197 -4.537,17.911 -9.597,23.587Z" style="fill:url(#_Linear2);fill-rule:nonzero;"/><path d="M108.321,150.227l4.262,16.574c0,0 0,2.84 -1.891,6.156c-1.896,3.313 -9.472,3.315 -9.472,3.315c0,0 8.998,3.314 13.259,0.948c4.281,-2.379 7.823,-1.168 11.593,0.042c2.428,0.779 4.948,1.558 7.823,1.379c7.576,-0.474 8.05,-0.947 -2.373,-4.739c-10.416,-3.785 -12.309,-1.418 -12.309,-1.418l-0.945,-20.835c-0.633,-1.265 -4.85,-1.475 -7.586,-1.475c-1.364,0 -2.361,0.053 -2.361,0.053Z" style="fill:url(#_Linear3);fill-rule:nonzero;"/><path d="M213.358,94.755l15.715,5.754l-14.248,-7.316c-0.479,0.54 -0.973,1.06 -1.467,1.562Z" style="fill:url(#_Linear4);fill-rule:nonzero;"/><path d="M166.686,6.629c-8.068,1.193 -38.535,9.918 -71.253,19.667c0.124,0.068 0.261,0.14 0.39,0.211c32.3,-9.623 62.355,-18.228 70.322,-19.41c1.658,-0.245 3.35,-0.362 5.068,-0.362c24.075,0 52.524,23.795 52.059,59.671c-0.402,-34.963 -28.355,-58.04 -52.065,-58.035c-1.712,0 -3.405,0.118 -5.062,0.362c-7.799,1.159 -36.802,9.438 -68.342,18.821c1.194,0.619 2.372,1.224 3.535,1.809c21.781,10.89 60.802,33.176 38.831,64.398c-8.594,12.214 -18.295,16.852 -27.843,16.852c-0.325,0 -0.652,-0.009 -0.978,-0.018c-0.244,-0.009 -0.486,-0.013 -0.726,-0.026c0.019,0 0.039,-0.004 0.06,-0.004c-19.836,-1.086 -38.709,-21.548 -45.334,-34.799c-5.59,-11.18 -14.758,-22.271 -16.039,-33.578c-24.184,7.383 -43.472,13.374 -47.224,14.542c-0.436,-0.924 -0.665,-1.43 -0.665,-1.43c0,0 20.828,-6.488 47.762,-14.71c-0.006,-0.11 -0.009,-0.219 -0.013,-0.325c-27.662,8.44 -49.169,15.14 -49.169,15.14c0,0 28.415,63.928 76.004,87.366c15.229,7.501 29.51,10.565 42.479,10.565c27.548,0 49.148,-13.834 61.221,-28.324c14.021,-16.822 15.498,-18.594 15.5,-18.594l-0.104,0.127c0,0 2.531,-0.852 6.108,-2.779c3.512,-1.895 8.033,-4.825 12.15,-9.011c0.494,-0.502 0.988,-1.022 1.467,-1.562c5.06,-5.676 9.207,-13.39 9.597,-23.587c0.018,-0.466 0.027,-0.94 0.032,-1.418c0.16,-37.184 -28.086,-61.931 -52.655,-61.931c-1.726,0 -3.433,0.122 -5.113,0.372Z" style="fill:url(#_Radial5);fill-rule:nonzero;"/><path d="M166.145,7.097c-7.967,1.182 -38.022,9.787 -70.322,19.41c0.664,0.353 1.32,0.701 1.98,1.047c31.54,-9.383 60.543,-17.662 68.342,-18.821c1.657,-0.244 3.35,-0.362 5.062,-0.362c23.71,-0.005 51.663,23.072 52.065,58.035c0.465,-35.876 -27.984,-59.671 -52.059,-59.671c-1.718,0 -3.41,0.117 -5.068,0.362Zm-164.725,48.203c0,0 0.229,0.506 0.665,1.43c3.752,-1.168 23.04,-7.159 47.224,-14.542c-0.061,-0.531 -0.103,-1.067 -0.127,-1.598c-26.934,8.222 -47.762,14.71 -47.762,14.71Z" style="fill:url(#_Radial6);fill-rule:nonzero;"/><path d="M52.209,11.958c-1.466,4.421 -6.288,7.12 -6.782,10.905c-0.646,4.956 4.527,9.613 3.939,13.72c-0.174,1.23 -0.235,2.454 -0.197,3.682c0.004,0.106 0.007,0.215 0.013,0.325c0.024,0.531 0.066,1.067 0.127,1.598c1.281,11.307 10.449,22.398 16.039,33.578c6.625,13.251 25.498,33.713 45.334,34.799c8.899,-0.453 17.87,-5.169 25.873,-16.643c21.559,-30.923 -16.731,-52.994 -38.103,-63.78c-17.608,-8.888 -38.668,-22.855 -45.549,-27.506c0.097,-0.54 0.248,-1.066 0.481,-1.57c0,0 26.484,18.293 47.857,29.076c21.377,10.786 59.662,32.857 38.103,63.78c-8.437,12.096 -17.947,16.68 -27.316,16.68c-0.224,0 -0.451,-0.002 -0.68,-0.007c0.326,0.009 0.653,0.018 0.978,0.018c9.548,0 19.249,-4.638 27.843,-16.852c21.971,-31.222 -17.05,-53.508 -38.831,-64.398c-1.163,-0.585 -2.341,-1.19 -3.535,-1.809c-0.66,-0.346 -1.316,-0.694 -1.98,-1.047c-0.129,-0.071 -0.266,-0.143 -0.39,-0.211c-20.462,-10.963 -42.868,-26.296 -42.868,-26.296c-1.745,3.743 0.746,8.637 -0.356,11.958Z" style="fill:url(#_Linear7);fill-rule:nonzero;"/><path d="M110.622,110.569c0.24,0.013 0.482,0.017 0.726,0.026c-0.219,-0.009 -0.445,-0.015 -0.666,-0.03c-0.021,0 -0.041,0.004 -0.06,0.004Z" style="fill:url(#_Radial8);fill-rule:nonzero;"/><path d="M52.903,2.636c6.881,4.651 27.941,18.618 45.549,27.506c21.372,10.786 59.662,32.857 38.103,63.78c-8.003,11.474 -16.974,16.19 -25.873,16.643c0.221,0.015 0.447,0.021 0.666,0.03c0.229,0.005 0.456,0.007 0.68,0.007c9.369,0 18.879,-4.584 27.316,-16.68c21.559,-30.923 -16.726,-52.994 -38.103,-63.78c-21.373,-10.783 -47.857,-29.076 -47.857,-29.076c-0.233,0.504 -0.384,1.03 -0.481,1.57Z" style="fill:url(#_Linear9);fill-rule:nonzero;"/><path d="M202.2,61.084c0,9.677 -7.525,17.522 -16.812,17.522c-9.282,0 -16.807,-7.845 -16.807,-17.522c0,-9.673 7.525,-17.52 16.807,-17.52c9.287,0 16.812,7.847 16.812,17.52" style="fill:#231f20;fill-rule:nonzero;"/><path d="M201.255,61.561c0,9.13 -7.105,16.534 -15.867,16.534c-8.763,0 -15.863,-7.404 -15.863,-16.534c0,-9.134 7.1,-16.536 15.863,-16.536c8.762,0 15.867,7.402 15.867,16.536" style="fill:#fff;fill-rule:nonzero;"/><path d="M199.833,62.507c0,7.225 -5.619,13.08 -12.547,13.08c-6.932,0 -12.551,-5.855 -12.551,-13.08c0,-7.223 5.619,-13.078 12.551,-13.078c6.928,0 12.547,5.855 12.547,13.078" style="fill:#231f20;fill-rule:nonzero;"/><defs><linearGradient id="_Linear1" x1="0" y1="0" x2="1" y2="0" gradientUnits="userSpaceOnUse" gradientTransform="matrix(38.2555,0,0,-38.2555,108.713,161.08)"><stop offset="0%" style="stop-color:#e05626;stop-opacity:1"/><stop offset="100%" style="stop-color:#f69042;stop-opacity:1"/></linearGradient><linearGradient id="_Linear2" x1="0" y1="0" x2="1" y2="0" gradientUnits="userSpaceOnUse" gradientTransform="matrix(33.9314,0,0,-33.9314,195.51,86.7054)"><stop offset="0%" style="stop-color:#e05626;stop-opacity:1"/><stop offset="100%" style="stop-color:#f69042;stop-opacity:1"/></linearGradient><linearGradient id="_Linear3" x1="0" y1="0" x2="1" y2="0" gradientUnits="userSpaceOnUse" gradientTransform="matrix(38.2555,0,0,-38.2555,101.151,164.393)"><stop offset="0%" style="stop-color:#e05626;stop-opacity:1"/><stop offset="100%" style="stop-color:#f69042;stop-opacity:1"/></linearGradient><linearGradient id="_Linear4" x1="0" y1="0" x2="1" y2="0" gradientUnits="userSpaceOnUse" gradientTransform="matrix(33.9076,0,0,-33.9076,195.526,96.8616)"><stop offset="0%" style="stop-color:#a16345;stop-opacity:1"/><stop offset="100%" style="stop-color:#ab7e59;stop-opacity:1"/></linearGradient><radialGradient id="_Radial5" cx="0" cy="0" r="1" gradientUnits="userSpaceOnUse" gradientTransform="matrix(94.8935,0,0,-94.8935,165.151,52.3929)"><stop offset="0%" style="stop-color:#56c3ef;stop-opacity:1"/><stop offset="100%" style="stop-color:#1f7cb4;stop-opacity:1"/></radialGradient><radialGradient id="_Radial6" cx="0" cy="0" r="1" gradientUnits="userSpaceOnUse" gradientTransform="matrix(94.8738,0,0,-94.8738,165.151,52.3929)"><stop offset="0%" style="stop-color:#8ed3f4;stop-opacity:1"/><stop offset="100%" style="stop-color:#64abd6;stop-opacity:1"/></radialGradient><linearGradient id="_Linear7" x1="0" y1="0" x2="1" y2="0" gradientUnits="userSpaceOnUse" gradientTransform="matrix(101.287,0,0,-101.287,44.5885,55.3929)"><stop offset="0%" style="stop-color:#1f7cb4;stop-opacity:1"/><stop offset="100%" style="stop-color:#56c3ef;stop-opacity:1"/></linearGradient><radialGradient id="_Radial8" cx="0" cy="0" r="1" gradientUnits="userSpaceOnUse" gradientTransform="matrix(64.0771,0,0,-64.0771,164.901,110.58)"><stop offset="0%" style="stop-color:#8ed3f4;stop-opacity:1"/><stop offset="100%" style="stop-color:#64abd6;stop-opacity:1"/></radialGradient><linearGradient id="_Linear9" x1="0" y1="0" x2="1" y2="0" gradientUnits="userSpaceOnUse" gradientTransform="matrix(101.263,0,0,-101.263,44.651,55.8304)"><stop offset="0%" style="stop-color:#64abd6;stop-opacity:1"/><stop offset="100%" style="stop-color:#8ed3f4;stop-opacity:1"/></linearGradient></defs></svg>