<?xml version="1.0" encoding="UTF-8" standalone="no"?><!DOCTYPE svg PUBLIC "-//W3C//DTD SVG 1.1//EN" "http://www.w3.org/Graphics/SVG/1.1/DTD/svg11.dtd"><svg width="100%" height="100%" viewBox="0 0 517 2142" version="1.1" xmlns="http://www.w3.org/2000/svg" xmlns:xlink="http://www.w3.org/1999/xlink" xml:space="preserve" style="fill-rule:evenodd;clip-rule:evenodd;stroke-linecap:round;stroke-linejoin:round;stroke-miterlimit:1.5;"><g><g><path d="M387.148,0c71.225,0.001 129.049,56.214 129.049,125.452l0,2016.34l-516.197,0l0,-2016.34c0,-69.238 57.824,-125.451 129.049,-125.452l258.099,0Z" style="fill:#26a8fe;"/><g><path d="M169.194,941.361c0,-7.049 -5.723,-12.772 -12.772,-12.772l-25.543,0c-7.049,0 -12.771,5.723 -12.771,12.772l0,80.565c0,7.049 5.722,12.772 12.771,12.772l25.543,0c7.049,0 12.772,-5.723 12.772,-12.772l0,-80.565Z" style="fill:#fff;stroke:#fffafa;stroke-width:4.17px;"/><path d="M285.187,940.326c0,-7.049 -5.723,-12.772 -12.772,-12.772l-25.543,0c-7.049,0 -12.772,5.723 -12.772,12.772l0,80.565c0,7.049 5.723,12.771 12.772,12.771l25.543,0c7.049,0 12.772,-5.722 12.772,-12.771l0,-80.565Z" style="fill:#fff;stroke:#fffafa;stroke-width:4.17px;"/><path d="M397.392,941.361c0,-7.049 -5.723,-12.772 -12.771,-12.772l-25.543,0c-7.049,0 -12.772,5.723 -12.772,12.772l0,80.565c0,7.049 5.723,12.772 12.772,12.772l25.543,0c7.048,0 12.771,-5.723 12.771,-12.772l0,-80.565Z" style="fill:#fff;stroke:#fffafa;stroke-width:4.17px;"/></g><g><path d="M170.451,1102.79c0,-7.048 -5.722,-12.771 -12.771,-12.771l-25.543,0c-7.049,0 -12.772,5.723 -12.772,12.771l0,80.566c0,7.049 5.723,12.771 12.772,12.771l25.543,0c7.049,0 12.771,-5.722 12.771,-12.771l0,-80.566Z" style="fill:#fff;stroke:#fffafa;stroke-width:4.17px;"/><path d="M286.444,1101.76c0,-7.048 -5.722,-12.771 -12.771,-12.771l-25.543,0c-7.049,0 -12.772,5.723 -12.772,12.771l0,80.566c0,7.049 5.723,12.771 12.772,12.771l25.543,0c7.049,0 12.771,-5.722 12.771,-12.771l0,-80.566Z" style="fill:#fff;stroke:#fffafa;stroke-width:4.17px;"/><path d="M398.65,1102.79c0,-7.048 -5.723,-12.771 -12.772,-12.771l-25.543,0c-7.049,0 -12.771,5.723 -12.771,12.771l0,80.566c0,7.049 5.722,12.771 12.771,12.771l25.543,0c7.049,0 12.772,-5.722 12.772,-12.771l0,-80.566Z" style="fill:#fff;stroke:#fffafa;stroke-width:4.17px;"/></g><g><path d="M171.709,1264.22c0,-7.049 -5.723,-12.771 -12.771,-12.771l-25.543,0c-7.049,0 -12.772,5.722 -12.772,12.771l0,80.566c0,7.048 5.723,12.771 12.772,12.771l25.543,0c7.048,0 12.771,-5.723 12.771,-12.771l0,-80.566Z" style="fill:#fff;stroke:#fffafa;stroke-width:4.17px;"/><path d="M287.702,1263.19c0,-7.049 -5.723,-12.771 -12.772,-12.771l-25.543,0c-7.048,0 -12.771,5.722 -12.771,12.771l0,80.566c0,7.048 5.723,12.771 12.771,12.771l25.543,0c7.049,0 12.772,-5.723 12.772,-12.771l0,-80.566Z" style="fill:#fff;stroke:#fffafa;stroke-width:4.17px;"/><path d="M399.907,1264.22c0,-7.049 -5.722,-12.771 -12.771,-12.771l-25.543,0c-7.049,0 -12.772,5.722 -12.772,12.771l0,80.566c0,7.048 5.723,12.771 12.772,12.771l25.543,0c7.049,0 12.771,-5.723 12.771,-12.771l0,-80.566Z" style="fill:#fff;stroke:#fffafa;stroke-width:4.17px;"/></g><g><path d="M172.967,1425.66c0,-7.049 -5.723,-12.772 -12.772,-12.772l-25.543,0c-7.048,0 -12.771,5.723 -12.771,12.772l0,80.565c0,7.049 5.723,12.772 12.771,12.772l25.543,0c7.049,0 12.772,-5.723 12.772,-12.772l0,-80.565Z" style="fill:#fff;stroke:#fffafa;stroke-width:4.17px;"/><path d="M288.96,1424.62c0,-7.049 -5.723,-12.772 -12.772,-12.772l-25.543,0c-7.049,0 -12.771,5.723 -12.771,12.772l0,80.565c0,7.049 5.722,12.772 12.771,12.772l25.543,0c7.049,0 12.772,-5.723 12.772,-12.772l0,-80.565Z" style="fill:#fff;stroke:#fffafa;stroke-width:4.17px;"/><path d="M401.165,1425.66c0,-7.049 -5.723,-12.772 -12.771,-12.772l-25.543,0c-7.049,0 -12.772,5.723 -12.772,12.772l0,80.565c0,7.049 5.723,12.772 12.772,12.772l25.543,0c7.048,0 12.771,-5.723 12.771,-12.772l0,-80.565Z" style="fill:#fff;stroke:#fffafa;stroke-width:4.17px;"/></g><g><path d="M174.225,1587.09c0,-7.049 -5.723,-12.772 -12.772,-12.772l-25.543,0c-7.049,0 -12.771,5.723 -12.771,12.772l0,80.565c0,7.049 5.722,12.772 12.771,12.772l25.543,0c7.049,0 12.772,-5.723 12.772,-12.772l0,-80.565Z" style="fill:#fff;stroke:#fffafa;stroke-width:4.17px;"/><path d="M290.217,1586.05c0,-7.049 -5.722,-12.772 -12.771,-12.772l-25.543,0c-7.049,0 -12.772,5.723 -12.772,12.772l0,80.565c0,7.049 5.723,12.772 12.772,12.772l25.543,0c7.049,0 12.771,-5.723 12.771,-12.772l0,-80.565Z" style="fill:#fff;stroke:#fffafa;stroke-width:4.17px;"/><path d="M402.423,1587.09c0,-7.049 -5.723,-12.772 -12.772,-12.772l-25.543,0c-7.048,0 -12.771,5.723 -12.771,12.772l0,80.565c0,7.049 5.723,12.772 12.771,12.772l25.543,0c7.049,0 12.772,-5.723 12.772,-12.772l0,-80.565Z" style="fill:#fff;stroke:#fffafa;stroke-width:4.17px;"/></g><g><path d="M171.101,484.017c0,-7.049 -5.722,-12.771 -12.771,-12.771l-25.543,0c-7.049,0 -12.772,5.722 -12.772,12.771l0,80.565c0,7.049 5.723,12.772 12.772,12.772l25.543,0c7.049,0 12.771,-5.723 12.771,-12.772l0,-80.565Z" style="fill:#fff;stroke:#fffafa;stroke-width:4.17px;"/><path d="M287.094,482.982c0,-7.049 -5.722,-12.771 -12.771,-12.771l-25.543,0c-7.049,0 -12.772,5.722 -12.772,12.771l0,80.565c0,7.049 5.723,12.772 12.772,12.772l25.543,0c7.049,0 12.771,-5.723 12.771,-12.772l0,-80.565Z" style="fill:#fff;stroke:#fffafa;stroke-width:4.17px;"/><path d="M399.3,484.017c0,-7.049 -5.723,-12.771 -12.772,-12.771l-25.543,0c-7.048,0 -12.771,5.722 -12.771,12.771l0,80.565c0,7.049 5.723,12.772 12.771,12.772l25.543,0c7.049,0 12.772,-5.723 12.772,-12.772l0,-80.565Z" style="fill:#fff;stroke:#fffafa;stroke-width:4.17px;"/></g><g><path d="M172.37,325.207c0,-6.958 -5.649,-12.606 -12.606,-12.606l-25.213,0c-6.957,0 -12.606,5.648 -12.606,12.606l0,80.896c0,6.957 5.649,12.606 12.606,12.606l25.213,0c6.957,0 12.606,-5.649 12.606,-12.606l0,-80.896Z" style="fill:#fff;stroke:#fffafa;stroke-width:4.17px;"/><path d="M286.86,324.172c0,-6.958 -5.649,-12.606 -12.606,-12.606l-25.212,0c-6.958,0 -12.606,5.648 -12.606,12.606l0,80.896c0,6.957 5.648,12.606 12.606,12.606l25.212,0c6.957,0 12.606,-5.649 12.606,-12.606l0,-80.896Z" style="fill:#fff;stroke:#fffafa;stroke-width:4.17px;"/><path d="M397.612,325.207c0,-6.958 -5.649,-12.606 -12.606,-12.606l-25.212,0c-6.958,0 -12.606,5.648 -12.606,12.606l0,80.896c0,6.957 5.648,12.606 12.606,12.606l25.212,0c6.957,0 12.606,-5.649 12.606,-12.606l0,-80.896Z" style="fill:#fff;stroke:#fffafa;stroke-width:4.17px;"/></g><g><path d="M173.621,166.398c0,-6.867 -5.575,-12.442 -12.442,-12.442l-24.886,0c-6.867,0 -12.443,5.575 -12.443,12.442l0,81.223c0,6.868 5.576,12.443 12.443,12.443l24.886,0c6.867,0 12.442,-5.575 12.442,-12.443l0,-81.223Z" style="fill:#fff;stroke:#fffafa;stroke-width:4.17px;"/><path d="M286.629,165.363c0,-6.867 -5.576,-12.443 -12.443,-12.443l-24.886,0c-6.867,0 -12.442,5.576 -12.442,12.443l0,81.223c0,6.867 5.575,12.443 12.442,12.443l24.886,0c6.867,0 12.443,-5.576 12.443,-12.443l0,-81.223Z" style="fill:#fff;stroke:#fffafa;stroke-width:4.17px;"/><path d="M395.946,166.398c0,-6.867 -5.575,-12.442 -12.443,-12.442l-24.885,0c-6.868,0 -12.443,5.575 -12.443,12.442l0,81.223c0,6.868 5.575,12.443 12.443,12.443l24.885,0c6.868,0 12.443,-5.575 12.443,-12.443l0,-81.223Z" style="fill:#fff;stroke:#fffafa;stroke-width:4.17px;"/></g><g><path d="M170.607,792.297c0,-7.049 -5.723,-12.772 -12.772,-12.772l-25.543,0c-7.048,0 -12.771,5.723 -12.771,12.772l0,80.565c0,7.049 5.723,12.772 12.771,12.772l25.543,0c7.049,0 12.772,-5.723 12.772,-12.772l0,-80.565Z" style="fill:#fff;stroke:#fffafa;stroke-width:4.17px;"/><path d="M286.6,791.262c0,-7.049 -5.723,-12.772 -12.772,-12.772l-25.543,0c-7.049,0 -12.771,5.723 -12.771,12.772l0,80.565c0,7.049 5.722,12.772 12.771,12.772l25.543,0c7.049,0 12.772,-5.723 12.772,-12.772l0,-80.565Z" style="fill:#fff;stroke:#fffafa;stroke-width:4.17px;"/><path d="M398.805,792.297c0,-7.049 -5.722,-12.772 -12.771,-12.772l-25.543,0c-7.049,0 -12.772,5.723 -12.772,12.772l0,80.565c0,7.049 5.723,12.772 12.772,12.772l25.543,0c7.049,0 12.771,-5.723 12.771,-12.772l0,-80.565Z" style="fill:#fff;stroke:#fffafa;stroke-width:4.17px;"/></g><g><path d="M172.02,643.233c0,-7.049 -5.723,-12.772 -12.771,-12.772l-25.544,0c-7.048,0 -12.771,5.723 -12.771,12.772l0,80.565c0,7.049 5.723,12.772 12.771,12.772l25.544,0c7.048,0 12.771,-5.723 12.771,-12.772l0,-80.565Z" style="fill:#fff;stroke:#fffafa;stroke-width:4.17px;"/><path d="M288.013,642.198c0,-7.049 -5.723,-12.772 -12.772,-12.772l-25.543,0c-7.048,0 -12.771,5.723 -12.771,12.772l0,80.565c0,7.049 5.723,12.772 12.771,12.772l25.543,0c7.049,0 12.772,-5.723 12.772,-12.772l0,-80.565Z" style="fill:#fff;stroke:#fffafa;stroke-width:4.17px;"/><path d="M400.218,643.233c0,-7.049 -5.722,-12.772 -12.771,-12.772l-25.543,0c-7.049,0 -12.772,5.723 -12.772,12.772l0,80.565c0,7.049 5.723,12.772 12.772,12.772l25.543,0c7.049,0 12.771,-5.723 12.771,-12.772l0,-80.565Z" style="fill:#fff;stroke:#fffafa;stroke-width:4.17px;"/></g></g><g><path d="M172.811,642.662c0,-7.049 -5.722,-12.771 -12.771,-12.771l-25.543,0c-7.049,0 -12.772,5.722 -12.772,12.771l0,80.566c0,7.048 5.723,12.771 12.772,12.771l25.543,0c7.049,0 12.771,-5.723 12.771,-12.771l0,-80.566Z" style="fill:#fff;stroke:#fffafa;stroke-width:4.17px;"/><path d="M288.804,641.627c0,-7.049 -5.723,-12.771 -12.771,-12.771l-25.543,0c-7.049,0 -12.772,5.722 -12.772,12.771l0,80.565c0,7.049 5.723,12.772 12.772,12.772l25.543,0c7.048,0 12.771,-5.723 12.771,-12.772l0,-80.565Z" style="fill:#fff;stroke:#fffafa;stroke-width:4.17px;"/><path d="M401.01,642.662c0,-7.049 -5.723,-12.771 -12.772,-12.771l-25.543,0c-7.049,0 -12.771,5.722 -12.771,12.771l0,80.566c0,7.048 5.722,12.771 12.771,12.771l25.543,0c7.049,0 12.772,-5.723 12.772,-12.771l0,-80.566Z" style="fill:#fff;stroke:#fffafa;stroke-width:4.17px;"/></g></g></svg>