<?xml version="1.0" encoding="UTF-8" standalone="no"?><!DOCTYPE svg PUBLIC "-//W3C//DTD SVG 1.1//EN" "http://www.w3.org/Graphics/SVG/1.1/DTD/svg11.dtd"><svg width="100%" height="100%" viewBox="0 0 610 178" version="1.1" xmlns="http://www.w3.org/2000/svg" xmlns:xlink="http://www.w3.org/1999/xlink" xml:space="preserve" style="fill-rule:evenodd;clip-rule:evenodd;stroke-linejoin:round;stroke-miterlimit:1.41421;"><path d="M0.129,177.495c-0.086,-2.852 -0.129,-5.723 -0.129,-8.611c0,-92.138 44.171,-166.942 98.577,-166.942c36.307,0 68.056,33.313 85.162,82.859c17.991,-32.52 43.573,-52.851 71.937,-52.851c40.44,0 75.226,41.33 90.419,100.387c9.42,-75.556 49.052,-132.337 96.453,-132.337c54.406,0 98.577,74.804 98.577,166.942c0,3.544 -0.066,7.063 -0.195,10.553l-540.801,0Z" style="fill:#c17017;"/><path d="M68.292,177.548c-0.086,-2.852 -0.129,-5.723 -0.129,-8.611c0,-92.138 44.17,-166.942 98.577,-166.942c36.307,0 68.056,33.313 85.161,82.859c17.992,-32.52 43.574,-52.851 71.938,-52.851c40.44,0 75.225,41.33 90.419,100.387c9.42,-75.556 49.051,-132.337 96.452,-132.337c54.406,0 98.577,74.804 98.577,166.942c0,3.544 -0.065,7.063 -0.194,10.553l-540.801,0Z" style="fill:#a7c10a;"/></svg>