<?xml version="1.0" encoding="UTF-8" standalone="no"?><!DOCTYPE svg PUBLIC "-//W3C//DTD SVG 1.1//EN" "http://www.w3.org/Graphics/SVG/1.1/DTD/svg11.dtd"><svg width="100%" height="100%" viewBox="0 0 64 70" version="1.1" xmlns="http://www.w3.org/2000/svg" xmlns:xlink="http://www.w3.org/1999/xlink" xml:space="preserve" style="fill-rule:evenodd;clip-rule:evenodd;stroke-linecap:round;stroke-linejoin:round;stroke-miterlimit:10;"><path d="M64,32c0,17.673 -14.327,32 -32,32c-17.673,0 -32,-14.327 -32,-32c0,-17.673 14.327,-32 32,-32c17.673,0 32,14.327 32,32" style="fill:#4f5d73;fill-rule:nonzero;"/><path d="M32.209,22.011l0.138,0.019l0.137,0.029l0.134,0.039l0.131,0.047l0.128,0.057l0.123,0.066l0.118,0.074l0.113,0.082l0.107,0.09l0.101,0.096l0.093,0.104l0.086,0.11l0.078,0.116l0.07,0.121l0.061,0.125l0.052,0.13l0.044,0.133l0.033,0.135l0.025,0.137l0.014,0.139l0.005,0.14l0,25l-0.005,0.139l-0.014,0.139l-0.025,0.138l-0.033,0.135l-0.044,0.133l-0.052,0.129l-0.061,0.126l-0.07,0.121l-0.078,0.115l-0.086,0.11l-0.093,0.104l-0.101,0.097l-0.107,0.09l-0.113,0.082l-0.118,0.074l-0.123,0.065l-0.128,0.057l-0.131,0.048l-0.134,0.038l-0.137,0.029l-0.138,0.02l-0.139,0.01l-0.14,0l-0.139,-0.01l-0.138,-0.02l-0.137,-0.029l-0.134,-0.038l-0.131,-0.048l-0.128,-0.057l-0.123,-0.065l-0.118,-0.074l-0.113,-0.082l-0.107,-0.09l-0.101,-0.097l-0.093,-0.104l-0.086,-0.11l-0.078,-0.115l-0.07,-0.121l-0.061,-0.126l-0.052,-0.129l-0.044,-0.133l-0.033,-0.135l-0.025,-0.138l-0.014,-0.139l-0.005,-0.139l0,-25l0.005,-0.14l0.014,-0.139l0.025,-0.137l0.033,-0.135l0.044,-0.133l0.052,-0.13l0.061,-0.125l0.07,-0.121l0.078,-0.116l0.086,-0.11l0.093,-0.104l0.101,-0.096l0.107,-0.09l0.113,-0.082l0.118,-0.074l0.123,-0.066l0.128,-0.057l0.131,-0.047l0.134,-0.039l0.137,-0.029l0.138,-0.019l0.139,-0.01l0.14,0l0.139,0.01Z" style="fill:#76c2af;"/><g><g opacity="0.199997"><clipPath id="_clip1"><rect x="13" y="36.999" width="38" height="20.433"/></clipPath><g clip-path="url(#_clip1)"><path d="M49.911,37.22c-0.708,-0.362 -1.562,-0.27 -2.178,0.233c-0.046,0.038 -4.611,3.758 -10.129,6.795c-2.774,1.528 -4.532,3.411 -5.652,5.195c-1.12,-1.784 -2.878,-3.667 -5.653,-5.195c-5.507,-3.032 -9.971,-6.745 -10.015,-6.782c-0.614,-0.513 -1.473,-0.612 -2.185,-0.251c-0.713,0.36 -1.144,1.11 -1.095,1.907c0.386,6.333 4.832,18.31 18.904,18.31c0.015,0 0.029,-0.004 0.044,-0.004c0.015,0 0.029,0.004 0.044,0.004c14.148,0 18.615,-11.977 19,-18.31c0.049,-0.794 -0.377,-1.54 -1.085,-1.902" style="fill:#231f20;fill-rule:nonzero;"/></g></g></g><path d="M31.996,53.432c0,0 0,-5.813 6.573,-9.432c5.758,-3.17 10.431,-7 10.431,-7c0,0 -1,16.432 -17.004,16.432Z" style="fill:#76c2af;fill-rule:nonzero;stroke:#76c2af;stroke-width:4px;"/><path d="M31.907,53.432c0,0 0,-5.813 -6.573,-9.432c-5.757,-3.17 -10.334,-7 -10.334,-7c0,0 1,16.432 16.907,16.432Z" style="fill:#76c2af;fill-rule:nonzero;stroke:#76c2af;stroke-width:4px;"/><g><g opacity="0.199997"><path d="M34,24c0,4.418 -3.582,8 -8,8c-4.418,0 -8,-3.582 -8,-8c0,-4.418 3.582,-8 8,-8c4.418,0 8,3.582 8,8" style="fill:#231f20;fill-rule:nonzero;"/></g></g><g><g opacity="0.199997"><path d="M46,24c0,4.418 -3.582,8 -8,8c-4.418,0 -8,-3.582 -8,-8c0,-4.418 3.582,-8 8,-8c4.418,0 8,3.582 8,8" style="fill:#231f20;fill-rule:nonzero;"/></g></g><g><g opacity="0.199997"><path d="M32,28c-4.418,0 -8,-3.582 -8,-8c0,-4.418 3.582,-8 8,-8c4.418,0 8,3.582 8,8c0,4.418 -3.582,8 -8,8" style="fill:#231f20;fill-rule:nonzero;"/></g></g><g><g opacity="0.199997"><path d="M32,38c-4.418,0 -8,-3.582 -8,-8c0,-4.418 3.582,-8 8,-8c4.418,0 8,3.582 8,8c0,4.418 -3.582,8 -8,8" style="fill:#231f20;fill-rule:nonzero;"/></g></g><path d="M34,22c0,4.418 -3.582,8 -8,8c-4.418,0 -8,-3.582 -8,-8c0,-4.418 3.582,-8 8,-8c4.418,0 8,3.582 8,8" style="fill:#c75c5c;fill-rule:nonzero;"/><path d="M46,22c0,4.418 -3.582,8 -8,8c-4.418,0 -8,-3.582 -8,-8c0,-4.418 3.582,-8 8,-8c4.418,0 8,3.582 8,8" style="fill:#c75c5c;fill-rule:nonzero;"/><path d="M32,24c-4.418,0 -8,-3.582 -8,-8c0,-4.418 3.582,-8 8,-8c4.418,0 8,3.582 8,8c0,4.418 -3.582,8 -8,8" style="fill:#c75c5c;fill-rule:nonzero;"/><path d="M32,36c-4.418,0 -8,-3.582 -8,-8c0,-4.418 3.582,-8 8,-8c4.418,0 8,3.582 8,8c0,4.418 -3.582,8 -8,8" style="fill:#c75c5c;fill-rule:nonzero;"/><g><g opacity="0.199997"><path d="M37,24c0,2.761 -2.239,5 -5,5c-2.761,0 -5,-2.239 -5,-5c0,-2.761 2.239,-5 5,-5c2.761,0 5,2.239 5,5" style="fill:#231f20;fill-rule:nonzero;"/></g></g><path d="M37,22c0,2.761 -2.239,5 -5,5c-2.761,0 -5,-2.239 -5,-5c0,-2.761 2.239,-5 5,-5c2.761,0 5,2.239 5,5" style="fill:#f5cf87;fill-rule:nonzero;"/></svg>