<?xml version="1.0" encoding="UTF-8" standalone="no"?><!DOCTYPE svg PUBLIC "-//W3C//DTD SVG 1.1//EN" "http://www.w3.org/Graphics/SVG/1.1/DTD/svg11.dtd"><svg width="100%" height="100%" viewBox="0 0 2729 1386" version="1.1" xmlns="http://www.w3.org/2000/svg" xmlns:xlink="http://www.w3.org/1999/xlink" xml:space="preserve" style="fill-rule:evenodd;clip-rule:evenodd;stroke-linecap:round;stroke-linejoin:round;stroke-miterlimit:1.5;"><path d="M0,856.785l0,528.497l2728.44,0l0,-845.667l-2728.44,317.17Z" style="fill:#a970a2;"/><path d="M2.516,0l0,858.286l2725.32,-317.497l0,-540.789l-2725.32,0Z" style="fill:#bfa1bb;"/><g><ellipse cx="489.25" cy="707.789" rx="269.194" ry="276.243" style="fill:#ca2445;stroke:#fff;stroke-width:5.5px;"/><ellipse cx="487.752" cy="700.508" rx="179.862" ry="184.162" style="fill:#007aff;stroke:#fff;stroke-width:5.5px;"/><ellipse cx="490.015" cy="699.431" rx="89.931" ry="92.081" style="fill:#0cff7e;stroke:#fff;stroke-width:5.5px;"/></g><g><ellipse cx="1053.65" cy="707.789" rx="269.194" ry="276.243" style="fill:#ca2445;stroke:#fff;stroke-width:5.5px;"/><ellipse cx="1052.94" cy="704.973" rx="179.862" ry="184.162" style="fill:#007aff;stroke:#fff;stroke-width:5.5px;"/><ellipse cx="1055.2" cy="703.896" rx="89.931" ry="92.081" style="fill:#0cff7e;stroke:#fff;stroke-width:5.5px;"/></g><g><ellipse cx="1632.17" cy="707.789" rx="269.252" ry="276.303" style="fill:#ca2445;stroke:#fff;stroke-width:5.5px;"/><ellipse cx="1631.45" cy="704.973" rx="179.901" ry="184.202" style="fill:#007aff;stroke:#fff;stroke-width:5.5px;"/><ellipse cx="1633.72" cy="703.895" rx="89.95" ry="92.101" style="fill:#0cff7e;stroke:#fff;stroke-width:5.5px;"/></g><g><ellipse cx="2207.99" cy="707.789" rx="269.194" ry="272.114" style="fill:#ca2445;stroke:#fff;stroke-width:5px;"/><ellipse cx="2207.28" cy="705.015" rx="179.862" ry="181.409" style="fill:#007aff;stroke:#fff;stroke-width:5px;"/><ellipse cx="2209.54" cy="703.954" rx="89.931" ry="90.705" style="fill:#0cff7e;stroke:#fff;stroke-width:5px;"/></g></svg>