<?xml version="1.0" encoding="UTF-8" standalone="no"?><!DOCTYPE svg PUBLIC "-//W3C//DTD SVG 1.1//EN" "http://www.w3.org/Graphics/SVG/1.1/DTD/svg11.dtd"><svg width="100%" height="100%" viewBox="0 0 265 374" version="1.1" xmlns="http://www.w3.org/2000/svg" xmlns:xlink="http://www.w3.org/1999/xlink" xml:space="preserve" style="fill-rule:evenodd;clip-rule:evenodd;stroke-linecap:round;stroke-linejoin:round;stroke-miterlimit:1.5;"><path d="M264.991,29.925c0,-16.516 -13.409,-29.925 -29.925,-29.925l-205.141,0c-16.516,0 -29.925,13.409 -29.925,29.925l0,313.181c0,16.516 13.409,29.926 29.925,29.926l205.141,0c16.516,0 29.925,-13.41 29.925,-29.926l0,-313.181Z" style="fill:#2b3e51;"/><ellipse cx="133.182" cy="351.549" rx="15.407" ry="15.698" style="fill:#ebebeb;fill-opacity:0.580392;"/><rect x="15.604" y="38.728" width="232.892" height="295.094" style="fill:#fff;"/><path d="M60.738,171.464c-2.257,-38.455 33.252,-69.808 54.306,-75.513c21.053,-5.705 56.51,12.451 72.013,41.282c-26.406,5.848 -43.637,14.017 -47.74,25.507c-23.414,1.336 -49.218,4.023 -78.579,8.724Z" style="fill:#e50017;stroke:#000;stroke-width:3.5px;"/><path d="M193.516,137.233c20.45,1.596 34.127,6.074 44.849,11.808c-7.633,10.202 -22.018,17.124 -44.849,19.942c-21.589,-7.09 -40.811,-3.917 -54.247,-6.769c15.624,-18.469 35.991,-23.917 54.247,-24.981Z" style="fill:#b90012;stroke:#000;stroke-width:3.5px;"/><path d="M194.271,170.241l12.17,12.556l-4.704,0l4.704,11.025l-4.704,7.851l4.704,10.489l-4.704,0l0,9.35l-7.466,0l0,-51.271Z" style="fill:#714313;stroke:#000;stroke-width:3.5px;"/><path d="M60.853,180.56c-20.07,45.231 23.935,89.63 68.056,89.78c24.342,0.083 54.169,-16.842 61.123,-42.515c4.694,-17.326 10.192,-43.979 0,-54.65c-10.315,-10.801 -42.053,-11.981 -61.123,-9.414c-21.42,2.883 -61.097,1.116 -68.056,16.799Z" style="fill:#ffdcc5;stroke:#000;stroke-width:3.5px;"/><path d="M60.853,173.175c-6.288,5.584 -18.863,16.751 -21.515,20.102c-1.285,1.622 5.599,-2.237 5.599,0c0,2.799 -6.795,13.999 -5.599,16.799c1.195,2.8 10.331,4.182 12.769,0c3.586,-6.15 7.026,-26.651 8.746,-36.901" style="fill:#714313;stroke:#000;stroke-width:3.5px;"/><path d="M94.878,222.178c5.091,32.63 27.891,34.181 53.946,11.404c6.224,-5.441 7.44,-13.375 14.617,-21.334" style="fill:none;stroke:#000;stroke-width:3px;"/><ellipse cx="95.166" cy="193.546" rx="2.472" ry="3.515" style="fill:#1f1a19;stroke:#000;stroke-width:3px;"/><ellipse cx="164.149" cy="192.126" rx="2.828" ry="3.943" style="fill:#1f1a19;stroke:#000;stroke-width:3px;"/><path d="M247.958,38.857l-232.948,294.67l232.948,0l0,-294.67Z" style="fill:#458ce2;fill-opacity:0.133333;"/></svg>