<?xml version="1.0" encoding="UTF-8" standalone="no"?><!DOCTYPE svg PUBLIC "-//W3C//DTD SVG 1.1//EN" "http://www.w3.org/Graphics/SVG/1.1/DTD/svg11.dtd"><svg width="100%" height="100%" viewBox="0 0 265 374" version="1.1" xmlns="http://www.w3.org/2000/svg" xmlns:xlink="http://www.w3.org/1999/xlink" xml:space="preserve" style="fill-rule:evenodd;clip-rule:evenodd;stroke-linecap:round;stroke-linejoin:round;stroke-miterlimit:1.5;"><path d="M265,29.926c0,-16.516 -13.41,-29.926 -29.926,-29.926l-205.148,0c-16.516,0 -29.926,13.41 -29.926,29.926l0,313.191c0,16.517 13.41,29.927 29.926,29.927l205.148,0c16.516,0 29.926,-13.41 29.926,-29.927l0,-313.191Z" style="fill:#2b3e51;"/><rect x="16.604" y="31.448" width="232.9" height="295.104" style="fill:#fff;"/><ellipse cx="133.186" cy="351.56" rx="15.408" ry="15.698" style="fill:#ebebeb;fill-opacity:0.580392;"/><path d="M52.302,154.551c-14.714,36.574 -6.532,75.606 0,90.543c12.689,29.016 53.533,36.999 88.322,38.213c47.579,1.66 87.909,-33.676 85.911,-89.744c-1.094,-30.714 -21.837,-74.789 -55.562,-84.071c-78.462,-21.596 -107.147,16.415 -118.671,45.059Z" style="fill:#ffdcc5;stroke:#000;stroke-width:3px;"/><path d="M55.104,213.278c0,0 22.013,37.96 40.068,44.597c35.103,12.905 103.207,0.894 113.781,-44.597" style="fill:none;stroke:#000;stroke-width:3px;"/><path d="M55.353,147.657l-3.051,-17.945c-4.516,-7.007 -10.711,-10.748 -18.506,-11.374c6.925,-4.549 14.126,-7.141 21.557,-8.113l-3.051,-14.912c8.121,-4.407 16.267,-3.476 24.426,0c2.29,-5.586 2.438,-12.199 0,-20.052c7.54,-0.885 14.154,3.29 20.211,10.509c3.162,-3.26 3.162,-9.34 0,-18.242c10.302,2.87 19.878,9.328 28.956,18.242l5.261,-18.242l23.503,18.242l0,-18.242c8.085,2.852 15.971,9.163 23.697,18.242l6.752,-10.509c8.336,4.463 21.476,10.976 24.454,20.052c2.978,9.075 -6.586,34.399 -6.586,34.399c-21.325,-18.694 -44.976,-32.099 -77.081,-26.286c-22.822,0.003 -42.784,7.025 -57.763,26.286l-12.779,17.945Z" style="fill:#1f1a19;stroke:#000;stroke-width:3px;"/><ellipse cx="103.971" cy="163.341" rx="2.631" ry="3.417" style="fill:#1f1a19;stroke:#000;stroke-width:3px;"/><ellipse cx="177.398" cy="161.961" rx="3.01" ry="3.833" style="fill:#1f1a19;stroke:#000;stroke-width:3px;"/><path d="M248.966,31.577l-232.956,294.68l232.956,0l0,-294.68Z" style="fill:#458ce2;fill-opacity:0.133333;"/></svg>