<?xml version="1.0" encoding="UTF-8" standalone="no"?><!DOCTYPE svg PUBLIC "-//W3C//DTD SVG 1.1//EN" "http://www.w3.org/Graphics/SVG/1.1/DTD/svg11.dtd"><svg width="100%" height="100%" viewBox="0 0 265 374" version="1.1" xmlns="http://www.w3.org/2000/svg" xmlns:xlink="http://www.w3.org/1999/xlink" xml:space="preserve" style="fill-rule:evenodd;clip-rule:evenodd;stroke-linecap:round;stroke-linejoin:round;stroke-miterlimit:1.5;"><path d="M264.991,29.925c0,-16.516 -13.409,-29.925 -29.925,-29.925l-205.141,0c-16.516,0 -29.925,13.409 -29.925,29.925l0,313.181c0,16.516 13.409,29.926 29.925,29.926l205.141,0c16.516,0 29.925,-13.41 29.925,-29.926l0,-313.181Z" style="fill:#2b3e51;"/><ellipse cx="133.182" cy="351.549" rx="15.407" ry="15.698" style="fill:#ebebeb;fill-opacity:0.580392;"/><rect x="16.885" y="31.502" width="232.892" height="295.094" style="fill:#fff;"/><path d="M142.651,79.311c-27.586,-0.22 -77.878,13.378 -95.148,49.483c-15.586,32.583 14.643,115.757 0,112.049c-14.643,-3.707 -20.785,-4.986 -17.738,0c13.752,22.51 70.163,46.548 87.106,35.01c8.79,-5.986 18.743,-9.573 25.78,-10.115c5.937,-0.457 15.751,11.727 16.447,6.861c2.269,-15.879 65.417,-11.455 68.755,-11.005c3.171,0.428 -15.044,-14.368 -10.868,-20.751c11.332,-17.317 13.685,-63.542 16.227,-95.515c3.498,-44.003 -46.867,-60.774 -90.561,-66.017" style="fill:#9c2b04;stroke:#000;stroke-width:3px;"/><path d="M68.496,200.808c-0.811,-23.275 81.37,-62.859 113.816,-70.496c3.577,-0.842 7.366,0.259 11.034,0c19.566,-1.381 39.194,50.242 19.193,85.981c-12.952,23.142 -48.64,30.102 -67.504,29.096c-28.23,-1.507 -75.541,-15.95 -76.539,-44.581Z" style="fill:#ffdcc5;stroke:#000;stroke-width:3.5px;"/><path d="M84.927,194.289c15.766,44.815 56.421,51.332 97.792,25.809c9.882,-6.097 10.39,-16.515 21.436,-25.809" style="fill:none;stroke:#000;stroke-width:3px;"/><ellipse cx="110.174" cy="175.043" rx="2.231" ry="2.605" style="fill:#1f1a19;stroke:#000;stroke-width:3px;"/><ellipse cx="172.453" cy="173.99" rx="2.553" ry="2.922" style="fill:#1f1a19;stroke:#000;stroke-width:3px;"/><path d="M249.239,31.631l-232.948,294.67l232.948,0l0,-294.67Z" style="fill:#458ce2;fill-opacity:0.133333;"/></svg>