<?xml version="1.0" encoding="UTF-8" standalone="no"?><!DOCTYPE svg PUBLIC "-//W3C//DTD SVG 1.1//EN" "http://www.w3.org/Graphics/SVG/1.1/DTD/svg11.dtd"><svg width="100%" height="100%" viewBox="0 0 982 582" version="1.1" xmlns="http://www.w3.org/2000/svg" xmlns:xlink="http://www.w3.org/1999/xlink" xml:space="preserve" style="fill-rule:evenodd;clip-rule:evenodd;stroke-linejoin:round;stroke-miterlimit:1.41421;"><g><path d="M601.157,9.542c27.4,3.9 54.1,10.7 80.6,18.9c46.2,14.2 89.8,34 130.8,59.6c2.9,1.8 6.7,2.9 10,2.9c48.2,0.2 96.3,0.1 144.4,0.2c3.9,0 7.7,0.4 11.6,0.6c0,0.9 0.1,1.3 0,1.6c-2.2,3.5 -4.5,6.9 -6.8,10.3c-16.3,25.1 -30.3,51.3 -38.5,80.2c-0.9,3.1 -1.1,5.7 1,8.8c42.9,61.6 56.5,129.2 38.6,202c-15.7,63.9 -52.3,113.7 -108,149c-39.8,25.2 -83.7,37.2 -130.7,37.5c-19.7,0.1 -39.4,-2.5 -58.6,-7.5c-46.9,-12.2 -87.2,-35.6 -120.4,-71c-4.4,-4.7 -8.5,-9.5 -13.2,-14.8c-17.5,26.1 -34.8,51.9 -52.5,78.2c-17.6,-26.3 -34.6,-51.8 -51.6,-77.1c-1.2,0.6 -1.5,0.7 -1.7,0.9c-0.4,0.3 -0.7,0.7 -1,1.1c-40.1,47.4 -90.6,76.4 -152.1,86.1c-34.2,5.4 -68.1,3.5 -101.3,-5.7c-47.1,-12.9 -87.1,-37.8 -119.4,-74.4c-31.6,-35.8 -51.2,-77.4 -58.6,-124.7c-8.4,-44.1 1.8,-86.7 4.4,-97c7.4,-30 20.4,-57.6 38.2,-82.9c1.3,-1.8 1.7,-5 1.1,-7.1c-7.3,-26.6 -19.8,-50.8 -34.4,-74c-3.7,-5.9 -8.2,-11.4 -12.3,-17c0,-0.6 0,-1.3 0,-2c0.8,0.1 1.6,0.3 2.4,0.3c49.3,0 98.5,0 147.8,-0.1c2.1,0 4.5,-0.9 6.4,-2.1c34.6,-22.2 71.5,-39.8 110.3,-53.5c27.9,-9.9 56.5,-17.6 85.6,-23.2c28.2,-5.4 56.5,-9.3 85.1,-11.2c70,-5.5 125.7,1.9 162.8,7.1Zm-61.7,325.4c0,108.2 87.8,196.6 195.6,196.2c108.2,-0.4 195.6,-86.3 195.5,-195.7c-0.1,-112.7 -91.5,-197.5 -199.7,-195.3c-106.8,2.2 -190.5,88.3 -191.4,194.8Zm-293.4,-195.6c-105.3,-0.9 -197,86.9 -195.2,198.8c1.7,104.3 87.7,192.8 197.4,191.9c107.2,-0.9 193.4,-88.5 193.6,-194.5c0.1,-108.9 -87.1,-196.2 -195.8,-196.2Zm9.7,-51c59.5,3.6 111.7,24.4 155.8,64.5c44,40 69.8,90 79.2,148.8c9.6,-58.1 34.8,-107.5 78,-147.2c43.3,-39.7 94.8,-60.5 153.3,-64.9c-69.4,-30.9 -142.6,-44 -217.9,-45.4c-85.7,-1.8 -168.9,10.8 -248.4,44.2Z" style="fill-rule:nonzero;stroke:#000;stroke-width:1px;"/><path d="M734.657,211.442c67,-0.1 121.2,53.8 121.2,120.7c0,67.2 -53.3,119.1 -116.2,121.5c-70.2,2.7 -126.5,-53.3 -126.4,-121.2c0,-68.6 56.6,-122.1 121.4,-121Zm79,121.1c0,-43.7 -35.3,-79.1 -78.7,-79.1c-43.8,0 -79.5,35.3 -79.7,78.8c-0.2,43.3 35.7,79.4 79.2,79.5c43.4,0.1 79.2,-35.7 79.2,-79.2Z" style="fill-rule:nonzero;stroke:#000;stroke-width:1px;"/><path d="M243.457,211.442c66.9,-0.1 121.2,54 121.1,120.9c-0.2,67.7 -53.5,118.5 -115.3,121.3c-70.5,3.2 -127.4,-53 -127.3,-121.3c0,-69.1 57,-122 121.5,-120.9Zm78.9,120.8c-0.1,-43.9 -35.6,-78.9 -80,-78.8c-42.8,0.1 -78.6,36.2 -78.5,79.1c0.1,43.4 35.9,79.1 79.5,79.2c43.2,0.1 79.1,-36 79,-79.5Z" style="fill-rule:nonzero;stroke:#000;stroke-width:1px;"/><path d="M734.657,292.342c22.2,0 40.4,18.2 40.2,40.3c-0.2,22.1 -18.1,40 -39.9,40c-22.5,0 -40.5,-17.7 -40.5,-39.8c0,-22.8 17.6,-40.5 40.2,-40.5Z" style="fill-rule:nonzero;stroke:#000;stroke-width:1px;"/><path d="M243.257,291.942c22.5,0 40.6,18 40.7,40.4c0.1,22.3 -18.2,40.5 -40.6,40.6c-23,0 -40.7,-17.7 -40.7,-40.8c0,-22.5 17.7,-40.1 40.6,-40.2Z" style="fill-rule:nonzero;stroke:#000;stroke-width:1px;"/></g></svg>