<?xml version="1.0" encoding="UTF-8" standalone="no"?><!DOCTYPE svg PUBLIC "-//W3C//DTD SVG 1.1//EN" "http://www.w3.org/Graphics/SVG/1.1/DTD/svg11.dtd"><svg width="100%" height="100%" viewBox="0 0 1280 735" version="1.1" xmlns="http://www.w3.org/2000/svg" xmlns:xlink="http://www.w3.org/1999/xlink" xml:space="preserve" style="fill-rule:evenodd;clip-rule:evenodd;stroke-linecap:round;stroke-linejoin:round;stroke-miterlimit:1.5;"><rect x="0" y="0" width="1279.65" height="685.445" style="fill:#5786ba;"/><g><rect x="134.799" y="390.62" width="36.677" height="36.44" style="fill:#b6b3cb;"/><rect x="144.857" y="358.587" width="15.378" height="32.827" style="fill:#b6b3cb;"/><path d="M36.956,542.406c8.528,-66.102 55.728,-116.74 112.601,-116.74c56.873,0 104.072,50.638 112.6,116.74l-225.201,0Z" style="fill:#b6b3cb;"/><rect x="5.351" y="581.043" width="295.578" height="19.532" style="fill:#b6b3cb;"/><rect x="0.848" y="673.924" width="295.578" height="19.532" style="fill:#b6b3cb;"/><rect x="10.13" y="600.216" width="18.691" height="74.358" style="fill:#b6b3cb;"/><rect x="36.363" y="542.434" width="15.012" height="39.25" style="fill:#b6b3cb;"/><rect x="47.81" y="600.216" width="18.691" height="74.358" style="fill:#b6b3cb;"/><rect x="66.626" y="542.434" width="15.012" height="39.25" style="fill:#b6b3cb;"/><rect x="85.491" y="600.216" width="18.691" height="74.358" style="fill:#b6b3cb;"/><rect x="96.89" y="542.434" width="15.012" height="39.25" style="fill:#b6b3cb;"/><rect x="123.171" y="600.216" width="18.691" height="74.358" style="fill:#b6b3cb;"/><rect x="127.154" y="542.434" width="15.012" height="39.25" style="fill:#b6b3cb;"/><rect x="160.852" y="600.216" width="18.691" height="74.358" style="fill:#b6b3cb;"/><rect x="157.418" y="542.434" width="15.012" height="39.25" style="fill:#b6b3cb;"/><rect x="198.532" y="600.216" width="18.691" height="74.358" style="fill:#b6b3cb;"/><rect x="187.682" y="542.434" width="15.012" height="39.25" style="fill:#b6b3cb;"/><rect x="236.212" y="600.216" width="18.691" height="74.358" style="fill:#b6b3cb;"/><rect x="217.946" y="542.434" width="15.012" height="39.25" style="fill:#b6b3cb;"/><rect x="273.893" y="600.216" width="18.691" height="74.358" style="fill:#b6b3cb;"/><rect x="248.21" y="542.434" width="15.012" height="39.25" style="fill:#b6b3cb;"/></g><g><path d="M869.073,644.707c-45.872,53.548 -114.235,87.544 -190.537,87.544c-76.301,0 -144.665,-33.996 -190.536,-87.544l381.073,0Z" style="fill:#d0173b;stroke:#010100;stroke-width:4.5px;"/><path d="M921.718,541.892c-9.388,39.029 -28.081,74.491 -53.618,103.944l-379.128,0c-25.537,-29.453 -44.229,-64.915 -53.618,-103.944l486.364,0Z" style="fill:#fff;stroke:#010100;stroke-width:4.5px;"/><path d="M924.412,439.077c2.709,14.62 4.124,29.686 4.124,45.078c0,20.279 -2.457,39.994 -7.092,58.866l-485.816,0c-4.634,-18.872 -7.092,-38.587 -7.092,-58.866c0,-15.392 1.416,-30.458 4.125,-45.078l491.751,0Z" style="fill:#d0173b;stroke:#010100;stroke-width:4.5px;"/><path d="M879.225,336.262c22.59,30.128 38.458,65.507 45.394,103.944l-492.165,0c6.935,-38.436 22.804,-73.816 45.394,-103.944l401.377,0Z" style="fill:#fff;stroke:#010100;stroke-width:4.5px;"/><path d="M477.694,337.45c45.523,-61.434 118.868,-101.333 201.53,-101.333c82.661,0 156.006,39.899 201.53,101.333l-403.06,0Z" style="fill:#d0173b;stroke:#010100;stroke-width:4.5px;"/></g><path d="M633.58,112.477c-0.539,5.817 8.403,18.946 11.591,31.428c2.589,10.14 -0.379,34.327 0,34.706c3.05,3.052 26.513,3.715 42.876,0c6.11,-1.388 3.654,-23.874 5.758,-34.706c2.381,-12.263 10.882,-26.511 10.882,-31.428c0,-4.23 -9.702,1.284 -13.075,0c-3.318,-1.262 -3.6,-7.701 -7.163,-7.701c-3.759,0 -10.362,7.701 -15.395,7.701c-5.033,0 -9.205,-7.701 -14.804,-7.701c-2.472,0 -6.374,0.099 -10.128,0.736c-5.224,0.886 -10.158,2.814 -10.542,6.965Z" style="fill:#979797;stroke:#0a0909;stroke-width:4.5px;"/><path d="M692.676,167.672c-2.39,0 -4.009,4.352 -6.694,4.352c-2.732,0 -6.138,-4.352 -9.701,-4.352c-3.803,0 -9.767,4.352 -13.121,4.352c-2.772,0 -4.569,-4.352 -7.005,-4.352c-2.436,0 -4.666,4.352 -7.61,4.352c-3.7,0 -10.993,-5.392 -14.587,-4.352c-3.595,1.04 -4.565,7.983 -6.978,10.592c-2.413,2.608 -5.64,2.111 -7.5,5.06c-1.86,2.949 -0.825,9.16 0,12.632c0.733,3.088 3.089,6.836 4.949,8.203c1.651,1.213 6.11,-2.007 6.211,0c0.308,6.118 5.596,10.887 10.416,9.654c3.628,-0.928 8.689,-6.432 11.285,-3.838c3.678,3.676 5.953,6.981 10.819,7.071c5.667,0.106 10.558,-5.312 13.121,-7.071c2.253,-1.546 7.252,3.838 9.701,3.838c2.449,0 6.208,-6.519 6.694,-3.838c0.287,1.585 6.607,6.279 12.81,3.838c3.23,-1.271 4.945,-8.045 7.223,-9.654c1.737,-1.227 4.458,0.792 6.445,0c4.381,-1.745 4.085,-9.673 0,-13.99c-1.837,-1.942 5.153,-4.861 4.079,-6.845c-1.074,-1.984 -7.626,-2.505 -10.524,-5.06c-2.957,-2.609 -5.158,-9.552 -7.223,-10.592c-2.023,-1.019 -3.03,4.352 -5.165,4.352c-2.135,0 -5.255,-4.352 -7.645,-4.352Z" style="fill:#ccc;stroke:#000;stroke-width:4.5px;"/><path d="M635.379,143.537c-0.105,0.147 -23.51,7.473 -20.032,12.707c3.918,5.896 32.347,13.678 31.365,14.126c-2.774,1.267 -44.134,-5.43 -48.161,-14.126c-3.272,-7.064 38.421,-14.941 36.828,-12.707Z" style="fill:#979797;stroke:#010000;stroke-width:2px;"/><path d="M645.579,146.734c-0.053,0.103 -11.931,5.241 -10.166,8.911c1.989,4.136 16.416,9.593 15.918,9.908c-1.408,0.888 -22.398,-3.809 -24.442,-9.908c-1.66,-4.954 19.499,-10.478 18.69,-8.911Z" style="fill:#979797;stroke:#010000;stroke-width:2px;"/><path d="M705.299,143.376c0.105,0.148 23.51,7.473 20.032,12.707c-3.918,5.897 -32.346,13.678 -31.365,14.126c2.775,1.268 44.134,-5.43 48.161,-14.126c3.272,-7.064 -38.421,-14.94 -36.828,-12.707Z" style="fill:#979797;stroke:#080000;stroke-width:2px;"/><path d="M691.384,142.949c0.081,0.123 18.198,6.223 15.506,10.581c-3.033,4.911 -25.039,11.391 -24.279,11.764c2.148,1.055 34.163,-4.522 37.28,-11.764c2.533,-5.882 -29.741,-12.441 -28.507,-10.581Z" style="fill:#979797;stroke:#010000;stroke-width:2px;"/><path d="M598.323,106.579c3.062,0.323 -15.013,-5.175 -17.745,-10.985c-4.558,-9.692 8.31,-15.45 8.763,-19.337c0.863,-7.406 13.809,-9.925 14.539,-17.344c1.198,-12.161 11.933,-17.906 24.019,-13.159c3.846,1.51 3.473,-4.46 5.479,-7.305c5.848,-8.289 12.275,-5.839 20.766,-2.697c3.555,1.315 4.09,-7.507 13.091,-6.751c12.07,1.014 8.954,9.126 13.309,6.751c6.275,-3.423 14.569,-3.822 18.617,0c4.489,4.239 4.58,12.824 8.718,10.002c3.601,-2.457 14.285,-8.296 16.297,8.113c0.459,3.74 8.957,3.072 13.692,5.046c3.848,1.603 3.915,5.774 5.595,8.852c1.926,3.53 13.544,8.582 14.954,14.258c1.809,7.282 -6.92,15.368 -7.856,20.202c-0.641,3.311 0.307,9.366 -2.285,11.859c-3.529,3.393 -11.095,2.923 -14.806,5.289c-2.825,1.8 -5.854,6.42 -9.294,7.478c-4.323,1.331 -9.065,-1.041 -12.249,0c-4.213,1.379 -11.425,5.874 -12.766,3.746c-1.342,-2.128 6.974,-12.51 4.717,-16.513c-1.153,-2.045 -6.166,1.321 -9.722,0c-3.407,-1.266 -5.314,-7.258 -8.538,-7.505c-4.428,-0.339 -12.247,6.569 -18.383,7.505c-5.352,0.816 -9.035,-4.391 -13.091,-3.808c-3.919,0.563 -7.467,3.092 -11.362,3.808c-3.03,0.557 -6.419,-0.748 -9.404,0c-2.601,0.651 7.768,11.504 4.325,12.767c-3.584,1.315 -10.823,0.734 -15.225,-3.991c-5.096,-5.469 -16.458,0.232 -18.598,0c-3.211,-0.349 -7.697,-1.832 -11.138,-3.487c-7.469,-3.595 -1.299,-13.52 5.581,-12.794Z" style="fill:#ccc;stroke:#000;stroke-width:4.5px;"/><path d="M1145.26,157.11l-20.974,526.758l117.758,0l-16.323,-526.758l-80.461,0Z" style="fill:#b6b3cb;"/><path d="M1184.53,113.735l0,570.133" style="fill:none;stroke:#5786ba;stroke-width:5px;"/><path d="M1186.01,109.583l-39.381,43.264l76.377,0l-36.996,-43.264Z" style="fill:#b6b3cb;"/></svg>