<?xml version="1.0" encoding="UTF-8" standalone="no"?><!DOCTYPE svg PUBLIC "-//W3C//DTD SVG 1.1//EN" "http://www.w3.org/Graphics/SVG/1.1/DTD/svg11.dtd"><svg width="100%" height="100%" viewBox="0 0 442 592" version="1.1" xmlns="http://www.w3.org/2000/svg" xmlns:xlink="http://www.w3.org/1999/xlink" xml:space="preserve" style="fill-rule:evenodd;clip-rule:evenodd;stroke-linecap:round;stroke-linejoin:round;stroke-miterlimit:1.5;"><path d="M266.516,589.577l-95.462,0l23.865,-75.302l47.732,0l23.865,75.302Z" style="fill:#f24c3a;stroke:#000;stroke-width:4px;"/><ellipse cx="220.571" cy="296.864" rx="218.321" ry="220.928" style="fill:#6194f1;stroke:#010100;stroke-width:4.5px;"/><path d="M249.812,77.905c14.839,2.013 29.208,5.538 42.95,10.415l8.878,136.756l134.639,37.543c1.72,11.162 2.612,22.599 2.612,34.245c0,3.541 -0.082,7.062 -0.246,10.562l-128.874,42.898l9.329,143.71c-10.971,5.63 -22.474,10.35 -34.412,14.061l-99.17,-116.411l-134.203,44.672c-9.485,-11.768 -17.797,-24.542 -24.753,-38.139l74.033,-106.22l-77.023,-90.413c7.838,-16.55 17.653,-31.962 29.135,-45.921l119.655,33.365l77.45,-111.123Z" style="fill:#fff;stroke:#010100;stroke-width:4px;"/><path d="M257.668,73.525c-12.596,-2.619 -25.627,-3.993 -38.967,-3.993c-12.044,0 -23.837,1.12 -35.285,3.265l36.936,-70.547l37.316,71.275Z" style="fill:#f24c3a;stroke:#010100;stroke-width:4.5px;"/><path d="M95.899,294.296c-2.425,29.22 0.502,49.579 14.105,55.844c3.851,1.774 8.876,-0.983 11.925,-4.532c12.513,68.013 41.155,113.19 94.417,112.059c50.147,-4.447 74.84,-44.865 83.792,-107.527c8.438,5.028 18.656,-3.854 23.341,-10.263c4.686,-6.409 4.774,-28.192 4.774,-28.192c-17.808,2.783 -26.402,-23.431 -23.781,-59.853c-77.74,5.372 -106.784,-2.98 -154.409,-22.293c-7.083,32.353 -16.381,54.313 -28.134,64.757c-10.02,8.625 -18.373,6.55 -26.03,0Z" style="fill:#fff6e6;stroke:#000;stroke-width:5px;"/><path d="M83.622,286.582c4.365,5.086 27.754,16.592 37.152,8.47c10.927,-9.443 28.41,-65.128 28.41,-65.128c0,0 43.823,16.158 75.279,21.267c27.947,4.54 53.79,-1.287 73.354,0c26.445,1.74 59.256,20.624 76.661,13.347c11.907,-4.979 30.182,-23.322 27.562,-26.147c-10.645,-11.473 -50.47,-16.057 -81.522,-41.51c-57.929,-47.482 -85.091,-46.617 -114.541,-49.373c-31.747,-2.97 -66.638,21.659 -85.203,41.164c-18.565,19.505 -19.997,59.548 -26.189,75.866c-2.9,7.642 -15.328,16.958 -10.963,22.044Z" style="fill:#979797;stroke:#000;stroke-width:6px;"/><g><path d="M195.617,378.995c1.211,-2.006 7.363,-6.323 11.508,-13.609c5.577,-9.799 9.069,-20.702 12.093,-17.43c1.55,1.678 4.323,5.867 6.152,4.736c0.741,-0.458 4.701,-7.329 6.715,-4.736c2.215,2.85 1.479,25.671 7.193,34.438c4.068,6.241 3.379,3.77 4.829,6.898c0.762,1.642 -2.968,0.352 -4.829,0c-1.731,-0.328 -5.382,1.321 -7.193,6.133c-3.743,9.949 -9.548,21.92 -18.397,20.104c-14.916,-3.062 -15.184,-23.989 -12.631,-36.534c0.335,-1.649 -6.32,1.459 -5.44,0Z" style="fill:#150000;stroke:#000;stroke-width:1px;"/><path d="M204.83,394.926l20.54,7.067c-2.537,4.202 -6.24,6.267 -11.225,5.982c-7.272,-1.561 -11.608,-6.402 -9.315,-13.049Z" style="fill:#fff;"/><path d="M211.948,365.604c0,1.245 7.189,0.48 8.627,0c0.957,-0.319 -0.256,-2.875 0,-2.875c0.256,0 0.468,2.51 1.537,2.875c1.402,0.48 5.728,1.601 6.874,0c1.145,-1.6 0.273,-7.792 0,-9.604c-0.099,-0.658 -1.087,-1.68 -1.637,-1.264c-1.197,0.908 -5.423,3.435 -6.774,3.401c-4.928,-3.005 -8.627,6.223 -8.627,7.467Z" style="fill:#fffbfb;"/></g><path d="M304.304,249.47c-3.195,21.289 1.118,46.744 14.255,58.63c15.707,5.885 27.475,2.967 35.902,-7.419l-16.212,-38.932c-4.594,-4.38 -15.327,-9.539 -33.945,-12.279Z" style="fill:#979797;stroke:#000;stroke-width:6.5px;"/><path d="M183.442,283.085c12.842,-5.501 20.717,0.682 26.387,7.676" style="fill:none;stroke:#010100;stroke-width:2.5px;"/><path d="M252.986,293.968c20.276,-10.099 25.245,-1.78 27.421,2.742" style="fill:none;stroke:#010100;stroke-width:2.5px;"/><path d="M125.854,212.706c60.77,41.13 126.169,57.704 199.964,29.748" style="fill:none;stroke:#000;stroke-width:8px;"/><path d="M168.511,399.178c25.869,49.334 54.692,59.917 88.105,16.824" style="fill:none;stroke:#000;stroke-width:7.5px;"/><path d="M115.277,305.757c2.946,6.482 1.502,10.182 -3.819,12.394c-2.446,4.365 1.215,8.996 6.327,13.868" style="fill:none;stroke:#000;stroke-width:4.5px;"/><path d="M314.028,314.76c-3.709,6.122 -2.721,9.953 2.298,12.724c1.903,4.6 -2.294,8.806 -7.96,13.096" style="fill:none;stroke:#000;stroke-width:4.5px;"/><path d="M219.173,279.48c3.693,6.77 3.635,13.793 0,21.057" style="fill:none;stroke:#010100;stroke-width:2.5px;"/><path d="M245.682,284.963c-4.441,6.355 -5.183,13.344 -2.396,20.935" style="fill:none;stroke:#010100;stroke-width:2.5px;"/><path d="M173.315,289.025c8.775,11.645 19.759,15.003 33.905,6.505" style="fill:none;stroke:#010100;stroke-width:5px;"/><path d="M177.172,280.374c15.185,-7.641 26.793,-6.739 33.936,6.36" style="fill:none;stroke:#010100;stroke-width:4.5px;"/><path d="M252.159,289.153c15.185,-7.641 26.793,-6.738 33.936,6.36" style="fill:none;stroke:#010100;stroke-width:4px;"/><path d="M251.921,298.423c11.602,11.999 22.86,14.818 34.233,4.732" style="fill:none;stroke:#010100;stroke-width:4px;"/><ellipse cx="196.049" cy="285.806" rx="3.791" ry="3.742" style="fill:#fff;stroke:#010100;stroke-width:2.5px;"/><ellipse cx="196.242" cy="286.839" rx="3.054" ry="2.797"/><ellipse cx="214.479" cy="330.857" rx="3.376" ry="2.623" style="stroke:#010100;stroke-width:2.5px;"/><ellipse cx="240.05" cy="332.71" rx="3.376" ry="2.623" style="stroke:#010100;stroke-width:2.5px;"/><ellipse cx="270.907" cy="293.267" rx="4.14" ry="3.756" style="fill:#fff;stroke:#010100;stroke-width:2.5px;"/><ellipse cx="271.059" cy="294.524" rx="3.008" ry="2.797"/><path d="M301.622,305.087c-4.06,-0.21 -7.986,-1.876 -11.765,-5.142" style="fill:none;stroke:#010100;stroke-width:2.5px;"/><path d="M157.979,275.017c3.28,2.958 7.179,4.414 11.392,5.11" style="fill:none;stroke:#010100;stroke-width:3.5px;"/><path d="M154.741,287.784c4.834,-0.214 9.713,-1.753 14.63,-4.417" style="fill:none;stroke:#010100;stroke-width:3.5px;"/><path d="M301.906,293.011c-4.941,0.4 -8.942,1.756 -12.087,3.982" style="fill:none;stroke:#010100;stroke-width:2.5px;"/><path d="M189.467,244.848l-15.464,-13.794l0,13.794l-15.576,0l8.712,5.795l0,11.594l16.303,-11.594l6.025,11.594l6.715,-5.277l4.729,11.552l7.502,0l5.61,7.665l12.299,-13.94l-12.299,0l-5.61,-11.594l-7.502,0l-4.729,-12.256l-6.715,6.461Z" style="fill:#fff;stroke:#010100;stroke-width:5px;"/><path d="M244.878,268.512l7.919,11.598l8.931,-6.588l10.362,6.588l0,-11.598l10.275,5.01l5.435,-5.01l8.91,5.01l13.903,-9.91l-9.791,-3.988l0,-7.856l-13.022,7.856l0,-7.856l-5.435,7.856l-10.275,-12.302l-5.61,16.29l-13.683,-11.844l0,16.744l-7.919,0Z" style="fill:#fff;stroke:#000;stroke-width:5px;"/><path d="M193.713,364.072c-0.197,-15.875 4.44,-30.73 14.48,-44.444c-4.31,5.22 -5.777,9.724 0,12.405c0,0 4.357,-3.703 7.397,-3.009c5.957,1.361 0.641,10.384 11.57,11.214c4.655,0.354 8.47,-9.376 12.343,-9.694c3.704,-0.304 4.327,4.978 9.306,1.489c1.616,-2.309 0.876,-4.61 0,-6.91c5.736,14.462 6.205,29.491 0,45.238" style="fill:none;stroke:#000;stroke-width:4.5px;"/><path d="M112.851,351.068c-8.191,-1.211 -9.746,18.554 -9.93,19.612c-0.91,5.223 23.282,1.553 25.651,5.908c2.006,3.688 -6.531,-18.622 -6.72,-30.207c-0.033,-2.052 -5.983,5.133 -9.001,4.687Z" style="fill:#979797;stroke:#000;stroke-width:5px;"/><path d="M310.711,350.889c-7.154,1.943 6.44,33.409 6.464,35.268c0.041,3.244 -23.801,-0.502 -23.65,-2.1c0.542,-5.738 2.429,-11.385 3.851,-21.104c0.963,-6.577 1.831,-12.151 2.883,-12.064c2.712,0.226 13.18,-0.74 10.452,0Z" style="fill:#979797;stroke:#000;stroke-width:4px;"/><path d="M99.91,244.586c14.751,5.468 28.654,6.946 44.019,5.233" style="fill:none;stroke:#010100;stroke-width:5.5px;"/><path d="M96.345,259.69c15.563,4.761 31.353,-0.785 45.626,-4.284" style="fill:none;stroke:#010100;stroke-width:5.5px;"/><path d="M90.1,274.85c19.232,3.692 34.242,-1.838 48.373,-9.287" style="fill:none;stroke:#010100;stroke-width:5.5px;"/><path d="M307.407,273.842c18.49,7.19 31.066,9.645 39.2,8.544" style="fill:none;stroke:#010100;stroke-width:4.5px;"/><path d="M304.627,282.384c10.748,4.952 32.246,14.855 46.676,10.061" style="fill:none;stroke:#010100;stroke-width:4.5px;"/><path d="M149.703,201.211c15.926,15.766 32.505,24.407 49.768,25.581" style="fill:none;stroke:#010100;stroke-width:4.5px;"/><path d="M159.683,190.133c19.714,20.681 43.355,25.964 66.733,26.074" style="fill:none;stroke:#010100;stroke-width:6px;"/></svg>