<?xml version="1.0" encoding="UTF-8" standalone="no"?><!DOCTYPE svg PUBLIC "-//W3C//DTD SVG 1.1//EN" "http://www.w3.org/Graphics/SVG/1.1/DTD/svg11.dtd"><svg width="100%" height="100%" viewBox="0 0 579 592" version="1.1" xmlns="http://www.w3.org/2000/svg" xmlns:xlink="http://www.w3.org/1999/xlink" xml:space="preserve" style="fill-rule:evenodd;clip-rule:evenodd;stroke-linecap:round;stroke-linejoin:round;stroke-miterlimit:1.5;"><g><path d="M507.976,485.534c-52.659,63.337 -131.139,103.548 -218.732,103.548c-87.592,0 -166.072,-40.211 -218.732,-103.548l437.464,0Z" style="fill:#d0173b;stroke:#010100;stroke-width:4.5px;"/><path d="M568.412,363.924c-10.778,46.163 -32.237,88.107 -61.552,122.945l-435.231,0c-29.316,-34.837 -50.775,-76.782 -61.552,-122.945l558.335,0Z" style="fill:#fff;stroke:#010100;stroke-width:4.5px;"/><path d="M571.504,242.313c3.11,17.292 4.735,35.113 4.735,53.318c0,23.987 -2.821,47.306 -8.142,69.628l-557.705,0c-5.321,-22.322 -8.142,-45.641 -8.142,-69.628c0,-18.205 1.625,-36.026 4.735,-53.318l564.519,0Z" style="fill:#d0173b;stroke:#010100;stroke-width:4.5px;"/><path d="M519.63,120.703c25.933,35.635 44.15,77.482 52.111,122.945l-564.994,0c7.962,-45.463 26.178,-87.31 52.111,-122.945l460.772,0Z" style="fill:#fff;stroke:#010100;stroke-width:4.5px;"/><path d="M58.682,122.107c52.26,-72.664 136.458,-119.857 231.351,-119.857c94.894,0 179.092,47.193 231.352,119.857l-462.703,0Z" style="fill:#d0173b;stroke:#010100;stroke-width:4.5px;"/></g></svg>