<?xml version="1.0" encoding="UTF-8" standalone="no"?><!DOCTYPE svg PUBLIC "-//W3C//DTD SVG 1.1//EN" "http://www.w3.org/Graphics/SVG/1.1/DTD/svg11.dtd"><svg width="100%" height="100%" viewBox="0 0 655 854" version="1.1" xmlns="http://www.w3.org/2000/svg" xmlns:xlink="http://www.w3.org/1999/xlink" xml:space="preserve" style="fill-rule:evenodd;clip-rule:evenodd;stroke-linecap:round;stroke-linejoin:round;stroke-miterlimit:1.5;"><g><path d="M395.821,851.197l-142.172,0l35.543,-108.844l71.086,0l35.543,108.844Z" style="fill:#f24c3a;stroke:#000;stroke-width:4px;"/><ellipse cx="327.394" cy="428.098" rx="325.144" ry="319.338" style="fill:#6194f1;stroke:#010100;stroke-width:4.5px;"/><path d="M370.944,111.605c22.099,2.91 43.499,8.005 63.965,15.055l13.222,197.671l200.518,54.267c2.561,16.133 3.89,32.665 3.89,49.5c0,5.117 -0.123,10.207 -0.366,15.266l-191.933,62.007l13.893,207.723c-16.339,8.139 -33.47,14.961 -51.248,20.325l-147.695,-168.265l-199.868,64.57c-14.126,-17.01 -26.504,-35.474 -36.864,-55.127l110.257,-153.535l-114.711,-130.687c11.674,-23.922 26.292,-46.199 43.392,-66.376l178.202,48.227l115.346,-160.621Z" style="fill:#fff;stroke:#010100;stroke-width:4px;"/><path d="M382.644,105.273c-18.76,-3.785 -38.167,-5.771 -58.034,-5.771c-17.938,0 -35.5,1.619 -52.549,4.719l55.008,-101.971l55.575,103.023Z" style="fill:#f24c3a;stroke:#010100;stroke-width:4.5px;"/><path d="M141.721,424.386c-3.611,42.235 0.749,71.663 21.007,80.719c5.735,2.564 13.218,-1.422 17.759,-6.551c18.636,98.309 61.292,163.61 140.616,161.974c74.684,-6.427 111.458,-64.849 124.791,-155.423c12.567,7.267 27.784,-5.571 34.762,-14.835c6.979,-9.264 7.109,-40.75 7.109,-40.75c-26.52,4.023 -39.319,-33.868 -35.416,-86.515c-115.779,7.766 -159.034,-4.306 -229.961,-32.222c-10.549,46.764 -24.397,78.506 -41.901,93.603c-14.922,12.466 -27.363,9.467 -38.766,0Z" style="fill:#fff6e6;stroke:#000;stroke-width:5px;"/><path d="M123.438,413.235c6.5,7.351 41.332,23.982 55.329,12.243c16.274,-13.65 42.312,-94.138 42.312,-94.138c0,0 65.264,23.354 112.112,30.74c41.621,6.562 80.109,-1.86 109.246,0c39.384,2.515 88.251,29.811 114.172,19.292c17.733,-7.197 44.95,-33.711 41.047,-37.793c-15.853,-16.585 -75.164,-23.211 -121.411,-60.001c-86.273,-68.633 -126.725,-67.383 -170.585,-71.365c-47.28,-4.294 -99.243,31.306 -126.893,59.499c-27.649,28.193 -29.781,86.073 -39.003,109.66c-4.318,11.046 -22.827,24.512 -16.326,31.863Z" style="fill:#979797;stroke:#000;stroke-width:6px;"/><g><path d="M290.232,546.813c1.803,-2.9 10.964,-9.139 17.139,-19.671c8.304,-14.165 13.506,-29.924 18.009,-25.194c2.308,2.425 6.438,8.48 9.162,6.845c1.104,-0.661 7.001,-10.593 10.001,-6.845c3.298,4.119 2.202,37.106 10.713,49.778c6.058,9.021 5.032,5.45 7.192,9.97c1.133,2.373 -4.421,0.51 -7.192,0c-2.578,-0.474 -8.016,1.909 -10.713,8.865c-5.575,14.381 -14.22,31.685 -27.399,29.059c-22.215,-4.425 -22.613,-34.675 -18.811,-52.807c0.499,-2.383 -9.413,2.108 -8.101,0Z" style="fill:#150000;stroke:#000;stroke-width:1px;"/><path d="M303.952,569.84l30.59,10.215c-3.778,6.074 -9.294,9.058 -16.718,8.647c-10.829,-2.257 -17.287,-9.255 -13.872,-18.862Z" style="fill:#fff;"/><path d="M314.553,527.457c0,1.799 10.707,0.693 12.848,0c1.425,-0.461 -0.382,-4.155 0,-4.155c0.381,0 0.697,3.627 2.289,4.155c2.088,0.693 8.531,2.314 10.237,0c1.706,-2.313 0.406,-11.263 0,-13.881c-0.148,-0.953 -1.618,-2.43 -2.437,-1.828c-1.784,1.312 -8.077,4.965 -10.089,4.915c-7.339,-4.343 -12.848,8.995 -12.848,10.794Z" style="fill:#fffbfb;"/></g><path d="M452.099,359.592c-4.759,30.772 1.665,67.566 21.23,84.746c23.392,8.506 40.918,4.289 53.467,-10.723l-24.144,-56.274c-6.842,-6.332 -22.826,-13.789 -50.553,-17.749Z" style="fill:#979797;stroke:#000;stroke-width:6.5px;"/><path d="M272.098,408.181c19.126,-7.952 30.855,0.986 39.3,11.094" style="fill:none;stroke:#010100;stroke-width:2.5px;"/><path d="M375.67,423.912c30.197,-14.598 37.598,-2.574 40.839,3.962" style="fill:none;stroke:#010100;stroke-width:2.5px;"/><path d="M186.333,306.452c90.505,59.451 187.904,83.408 297.807,42.999" style="fill:none;stroke:#000;stroke-width:8px;"/><path d="M249.862,575.986c38.527,71.309 81.452,86.607 131.214,24.319" style="fill:none;stroke:#000;stroke-width:7.5px;"/><path d="M170.58,440.952c4.388,9.369 2.238,14.716 -5.687,17.915c-3.643,6.309 1.81,13.002 9.423,20.044" style="fill:none;stroke:#000;stroke-width:4.5px;"/><path d="M466.581,453.964c-5.525,8.85 -4.054,14.387 3.422,18.393c2.834,6.649 -3.417,12.729 -11.855,18.929" style="fill:none;stroke:#000;stroke-width:4.5px;"/><path d="M325.313,402.97c5.499,9.785 5.414,19.936 0,30.437" style="fill:none;stroke:#010100;stroke-width:2.5px;"/><path d="M364.794,410.895c-6.615,9.187 -7.72,19.287 -3.569,30.26" style="fill:none;stroke:#010100;stroke-width:2.5px;"/><path d="M257.017,416.767c13.068,16.832 29.427,21.686 50.495,9.402" style="fill:none;stroke:#010100;stroke-width:5px;"/><path d="M262.761,404.262c22.615,-11.044 39.903,-9.74 50.541,9.193" style="fill:none;stroke:#010100;stroke-width:4.5px;"/><path d="M374.44,416.952c22.614,-11.044 39.902,-9.74 50.54,9.193" style="fill:none;stroke:#010100;stroke-width:4px;"/><path d="M374.085,430.351c17.278,17.344 34.045,21.418 50.983,6.839" style="fill:none;stroke:#010100;stroke-width:4px;"/><ellipse cx="290.874" cy="412.114" rx="5.646" ry="5.409" style="fill:#fff;stroke:#010100;stroke-width:2.5px;"/><ellipse cx="291.161" cy="413.606" rx="4.548" ry="4.044"/><ellipse cx="318.322" cy="477.232" rx="5.027" ry="3.792" style="stroke:#010100;stroke-width:2.5px;"/><ellipse cx="356.405" cy="479.911" rx="5.027" ry="3.792" style="stroke:#010100;stroke-width:2.5px;"/><ellipse cx="402.361" cy="422.898" rx="6.166" ry="5.429" style="fill:#fff;stroke:#010100;stroke-width:2.5px;"/><ellipse cx="402.587" cy="424.714" rx="4.48" ry="4.044"/><path d="M448.104,439.983c-6.047,-0.303 -11.894,-2.711 -17.521,-7.433" style="fill:none;stroke:#010100;stroke-width:2.5px;"/><path d="M234.177,396.519c4.884,4.276 10.692,6.38 16.967,7.387" style="fill:none;stroke:#010100;stroke-width:3.5px;"/><path d="M229.354,414.972c7.199,-0.308 14.466,-2.533 21.79,-6.384" style="fill:none;stroke:#010100;stroke-width:3.5px;"/><path d="M448.527,422.528c-7.358,0.578 -13.317,2.538 -18.001,5.755" style="fill:none;stroke:#010100;stroke-width:2.5px;"/><path d="M281.072,352.912l-23.03,-19.939l0,19.939l-23.198,0l12.975,8.376l0,16.758l24.279,-16.758l8.974,16.758l10,-7.628l7.044,16.698l11.172,0l8.355,11.08l18.317,-20.15l-18.317,0l-8.355,-16.758l-11.172,0l-7.044,-17.716l-10,9.34Z" style="fill:#fff;stroke:#010100;stroke-width:5px;"/><path d="M363.595,387.116l11.794,16.764l13.302,-9.522l15.432,9.522l0,-16.764l15.302,7.242l8.093,-7.242l13.27,7.242l20.706,-14.325l-14.581,-5.765l0,-11.354l-19.395,11.354l0,-11.354l-8.093,11.354l-15.302,-17.781l-8.356,23.546l-20.378,-17.119l0,24.202l-11.794,0Z" style="fill:#fff;stroke:#000;stroke-width:5px;"/><path d="M287.396,525.242c-0.294,-22.946 6.612,-44.417 21.565,-64.241c-6.419,7.545 -8.605,14.055 0,17.93c0,0 6.489,-5.351 11.016,-4.348c8.871,1.967 0.955,15.009 17.232,16.209c6.931,0.511 12.613,-13.553 18.381,-14.012c5.517,-0.44 6.445,7.195 13.859,2.151c2.408,-3.336 1.306,-6.662 0,-9.988c8.543,20.906 9.242,42.629 0,65.39" style="fill:none;stroke:#000;stroke-width:4.5px;"/><path d="M166.968,506.446c-12.199,-1.75 -14.515,26.818 -14.79,28.347c-1.354,7.551 34.675,2.246 38.204,8.541c2.987,5.33 -9.727,-26.917 -10.009,-43.663c-0.05,-2.966 -8.91,7.419 -13.405,6.775Z" style="fill:#979797;stroke:#000;stroke-width:5px;"/><path d="M461.64,506.188c-10.654,2.808 9.591,48.29 9.626,50.977c0.063,4.689 -35.446,-0.725 -35.221,-3.035c0.808,-8.294 3.617,-16.457 5.736,-30.505c1.434,-9.507 2.726,-17.564 4.293,-17.437c4.038,0.326 19.629,-1.071 15.566,0Z" style="fill:#979797;stroke:#000;stroke-width:4px;"/><path d="M147.694,352.532c21.969,7.904 42.675,10.04 65.559,7.564" style="fill:none;stroke:#010100;stroke-width:5.5px;"/><path d="M142.385,374.364c23.178,6.881 46.694,-1.135 67.951,-6.192" style="fill:none;stroke:#010100;stroke-width:5.5px;"/><path d="M133.084,396.277c28.643,5.337 50.997,-2.657 72.043,-13.423" style="fill:none;stroke:#010100;stroke-width:5.5px;"/><path d="M456.719,394.82c27.538,10.392 46.268,13.942 58.381,12.351" style="fill:none;stroke:#010100;stroke-width:4.5px;"/><path d="M452.579,407.167c16.008,7.158 48.024,21.473 69.514,14.543" style="fill:none;stroke:#010100;stroke-width:4.5px;"/><path d="M221.852,289.836c23.718,22.79 48.409,35.28 74.119,36.976" style="fill:none;stroke:#010100;stroke-width:4.5px;"/><path d="M236.715,273.824c29.36,29.893 64.568,37.529 99.384,37.689" style="fill:none;stroke:#010100;stroke-width:6px;"/></g></svg>