<?xml version="1.0" encoding="UTF-8" standalone="no"?><!DOCTYPE svg PUBLIC "-//W3C//DTD SVG 1.1//EN" "http://www.w3.org/Graphics/SVG/1.1/DTD/svg11.dtd"><svg width="100%" height="100%" viewBox="0 0 625 618" version="1.1" xmlns="http://www.w3.org/2000/svg" xmlns:xlink="http://www.w3.org/1999/xlink" xml:space="preserve" style="fill-rule:evenodd;clip-rule:evenodd;stroke-linecap:round;stroke-linejoin:round;stroke-miterlimit:1.5;"><path d="M27.779,293.944c-4.664,57.471 0.967,97.514 27.131,109.838c7.407,3.489 17.072,-1.936 22.937,-8.914c24.068,133.772 79.161,222.629 181.61,220.403c96.457,-8.745 143.952,-88.243 161.172,-211.489c16.231,9.888 35.884,-7.581 44.897,-20.187c9.013,-12.607 9.181,-55.45 9.181,-55.45c-34.252,5.474 -50.782,-46.086 -45.741,-117.724c-149.532,10.567 -205.398,-5.859 -297.003,-43.846c-13.624,63.633 -31.509,106.826 -54.116,127.369c-19.273,16.963 -35.341,12.882 -50.068,0Z" style="fill:#fff6e6;stroke:#000;stroke-width:5px;"/><path d="M6.519,278.771c8.396,10.003 53.383,32.633 71.461,16.659c21.018,-18.573 54.647,-128.097 54.647,-128.097c0,0 84.291,31.779 144.797,41.829c53.755,8.929 103.463,-2.531 141.095,0c50.866,3.422 113.979,40.565 147.456,26.251c22.904,-9.792 58.055,-45.871 53.014,-51.426c-20.475,-22.567 -97.077,-31.584 -156.806,-81.645c-111.425,-93.391 -163.669,-91.69 -220.317,-97.11c-61.064,-5.842 -128.176,42.599 -163.886,80.963c-35.71,38.363 -38.464,117.122 -50.374,149.218c-5.578,15.031 -29.482,33.355 -21.087,43.358Z" style="fill:#ffc500;stroke:#000;stroke-width:9.5px;"/><g><path d="M219.586,460.535c2.329,-3.946 14.161,-12.436 22.135,-26.766c10.726,-19.275 17.444,-40.72 23.259,-34.283c2.982,3.3 8.315,11.538 11.835,9.314c1.425,-0.9 9.041,-14.414 12.916,-9.314c4.259,5.605 2.844,50.491 13.835,67.734c7.825,12.275 6.5,7.416 9.289,13.567c1.464,3.229 -5.709,0.693 -9.289,0c-3.329,-0.645 -10.352,2.598 -13.835,12.063c-7.201,19.569 -18.366,43.114 -35.387,39.542c-28.691,-6.022 -29.206,-47.184 -24.296,-71.857c0.646,-3.243 -12.156,2.869 -10.462,0Z" style="fill:#150000;stroke:#000;stroke-width:1px;"/><path d="M237.306,491.869l39.509,13.899c-4.88,8.266 -12.004,12.327 -21.592,11.767c-13.987,-3.071 -22.327,-12.593 -17.917,-25.666Z" style="fill:#fff;"/><path d="M250.998,434.197c0,2.448 13.828,0.943 16.593,0c1.841,-0.627 -0.493,-5.655 0,-5.655c0.493,0 0.9,4.936 2.957,5.655c2.696,0.943 11.018,3.148 13.221,0c2.204,-3.148 0.525,-15.327 0,-18.889c-0.191,-1.296 -2.09,-3.306 -3.147,-2.487c-2.304,1.785 -10.432,6.755 -13.031,6.688c-9.478,-5.91 -16.593,12.24 -16.593,14.688Z" style="fill:#fffbfb;"/></g><path d="M428.643,205.777c-6.146,41.872 2.15,91.939 27.419,115.317c30.212,11.574 52.847,5.836 69.055,-14.591l-31.182,-76.574c-8.837,-8.617 -29.482,-18.763 -65.292,-24.152Z" style="fill:#ffc500;stroke:#000;stroke-width:6.5px;"/><path d="M196.166,271.894c24.701,-10.821 39.849,1.341 50.756,15.096" style="fill:none;stroke:#010100;stroke-width:2.5px;"/><path d="M329.932,293.299c39.001,-19.863 48.56,-3.502 52.745,5.392" style="fill:none;stroke:#010100;stroke-width:2.5px;"/><path d="M85.397,133.467c116.89,80.897 242.685,113.496 384.628,58.511" style="fill:none;stroke:#000;stroke-width:8px;"/><path d="M167.447,500.232c49.759,97.032 105.198,117.849 169.468,33.091" style="fill:none;stroke:#000;stroke-width:7.5px;"/><path d="M65.052,316.486c5.667,12.749 2.889,20.025 -7.346,24.377c-4.705,8.585 2.338,17.693 12.17,27.276" style="fill:none;stroke:#000;stroke-width:4.5px;"/><path d="M447.347,334.193c-7.136,12.042 -5.235,19.577 4.419,25.027c3.661,9.047 -4.412,17.32 -15.311,25.758" style="fill:none;stroke:#000;stroke-width:4.5px;"/><path d="M264.895,264.802c7.102,13.316 6.992,27.129 0,41.417" style="fill:none;stroke:#010100;stroke-width:2.5px;"/><path d="M315.885,275.586c-8.543,12.501 -9.971,26.245 -4.609,41.177" style="fill:none;stroke:#010100;stroke-width:2.5px;"/><path d="M176.688,283.576c16.878,22.904 38.006,29.51 65.215,12.794" style="fill:none;stroke:#010100;stroke-width:5px;"/><path d="M184.106,266.561c29.208,-15.029 51.536,-13.254 65.275,12.509" style="fill:none;stroke:#010100;stroke-width:4.5px;"/><path d="M328.343,283.828c29.208,-15.028 51.536,-13.254 65.275,12.51" style="fill:none;stroke:#010100;stroke-width:4px;"/><path d="M327.885,302.061c22.315,23.601 43.971,29.144 65.847,9.306" style="fill:none;stroke:#010100;stroke-width:4px;"/><ellipse cx="220.415" cy="277.245" rx="7.293" ry="7.36" style="fill:#fff;stroke:#010100;stroke-width:2.5px;"/><ellipse cx="220.786" cy="279.276" rx="5.873" ry="5.502"/><ellipse cx="255.865" cy="365.853" rx="6.493" ry="5.16" style="stroke:#010100;stroke-width:2.5px;"/><ellipse cx="305.05" cy="369.499" rx="6.493" ry="5.16" style="stroke:#010100;stroke-width:2.5px;"/><ellipse cx="364.405" cy="291.92" rx="7.964" ry="7.387" style="fill:#fff;stroke:#010100;stroke-width:2.5px;"/><ellipse cx="364.696" cy="294.391" rx="5.785" ry="5.502"/><path d="M423.484,315.167c-7.81,-0.412 -15.362,-3.689 -22.63,-10.114" style="fill:none;stroke:#010100;stroke-width:2.5px;"/><path d="M147.189,256.024c6.309,5.818 13.809,8.682 21.913,10.052" style="fill:none;stroke:#010100;stroke-width:3.5px;"/><path d="M140.96,281.135c9.298,-0.42 18.683,-3.448 28.142,-8.688" style="fill:none;stroke:#010100;stroke-width:3.5px;"/><path d="M424.03,291.416c-9.503,0.787 -17.199,3.453 -23.249,7.831" style="fill:none;stroke:#010100;stroke-width:2.5px;"/><path d="M207.756,196.687l-29.744,-27.132l0,27.132l-29.962,0l16.758,11.398l0,22.803l31.358,-22.803l11.59,22.803l12.915,-10.38l9.098,22.722l14.429,0l10.791,15.076l23.656,-27.418l-23.656,0l-10.791,-22.803l-14.429,0l-9.098,-24.108l-12.915,12.71Z" style="fill:#fff;stroke:#010100;stroke-width:5px;"/><path d="M314.337,243.23l15.232,22.81l17.18,-12.955l19.931,12.955l0,-22.81l19.764,9.855l10.452,-9.855l17.139,9.855l26.742,-19.493l-18.832,-7.845l0,-15.45l-25.049,15.45l0,-15.45l-10.452,15.45l-19.764,-24.195l-10.791,32.04l-26.32,-23.295l0,32.933l-15.232,0Z" style="fill:#fff;stroke:#000;stroke-width:5px;"/><path d="M215.923,431.183c-0.379,-31.224 8.54,-60.441 27.852,-87.415c-8.29,10.266 -11.113,19.125 0,24.398c0,0 8.381,-7.282 14.228,-5.917c11.457,2.676 1.233,20.424 22.255,22.057c8.953,0.695 16.291,-18.443 23.741,-19.068c7.125,-0.598 8.323,9.79 17.899,2.928c3.11,-4.541 1.686,-9.066 0,-13.591c11.033,28.446 11.936,58.006 0,88.978" style="fill:none;stroke:#000;stroke-width:4.5px;"/><path d="M60.387,405.606c-15.756,-2.382 -18.748,36.493 -19.102,38.573c-1.749,10.274 44.784,3.056 49.341,11.622c3.858,7.253 -12.563,-36.627 -12.926,-59.414c-0.065,-4.036 -11.508,10.096 -17.313,9.219Z" style="fill:#ffc500;stroke:#000;stroke-width:5px;"/><path d="M440.965,405.255c-13.759,3.82 12.387,65.71 12.434,69.366c0.08,6.381 -45.781,-0.987 -45.49,-4.13c1.043,-11.285 4.672,-22.393 7.408,-41.508c1.852,-12.937 3.521,-23.9 5.544,-23.728c5.216,0.444 25.352,-1.457 20.104,0Z" style="fill:#ffc500;stroke:#000;stroke-width:4px;"/><path d="M35.494,196.17c28.373,10.755 55.116,13.661 84.671,10.292" style="fill:none;stroke:#010100;stroke-width:5.5px;"/><path d="M28.637,225.878c29.935,9.363 60.306,-1.545 87.761,-8.426" style="fill:none;stroke:#010100;stroke-width:5.5px;"/><path d="M16.624,255.695c36.994,7.263 65.865,-3.615 93.046,-18.265" style="fill:none;stroke:#010100;stroke-width:5.5px;"/><path d="M434.61,253.713c35.566,14.141 59.756,18.97 75.401,16.806" style="fill:none;stroke:#010100;stroke-width:4.5px;"/><path d="M429.263,270.514c20.675,9.739 62.025,29.219 89.78,19.789" style="fill:none;stroke:#010100;stroke-width:4.5px;"/><path d="M131.271,110.857c30.633,31.011 62.522,48.007 95.727,50.315" style="fill:none;stroke:#010100;stroke-width:4.5px;"/><path d="M150.467,89.069c37.919,40.677 83.392,51.067 128.358,51.285" style="fill:none;stroke:#010100;stroke-width:6px;"/></svg>