<?xml version="1.0" encoding="UTF-8" standalone="no"?><!DOCTYPE svg PUBLIC "-//W3C//DTD SVG 1.1//EN" "http://www.w3.org/Graphics/SVG/1.1/DTD/svg11.dtd"><svg width="100%" height="100%" viewBox="0 0 829 464" version="1.1" xmlns="http://www.w3.org/2000/svg" xmlns:xlink="http://www.w3.org/1999/xlink" xml:space="preserve" style="fill-rule:evenodd;clip-rule:evenodd;stroke-linecap:round;stroke-linejoin:round;stroke-miterlimit:1.5;"><g><rect x="0.187" y="0" width="827.635" height="462.88" style="fill:#ebebeb;"/><rect x="0" y="352.768" width="828.288" height="110.916" style="fill:#ec447d;"/><g><path d="M442.016,351.914c12.474,-25.196 43.063,-72.175 32.298,-71.479c-16.807,1.087 -73.304,15.972 -90.013,13.198c-10.374,-1.722 -8.024,-22.178 -10.242,-29.838c-1.351,-4.664 9.909,0.812 20.698,0c25.108,-1.891 66.959,-4.135 79.557,-6.112c4.403,-0.692 3.596,-9.414 7.815,-10.852c5.306,-1.808 17.884,-5.141 24.023,0c17.506,14.661 60.623,98.534 81.013,87.964c3.656,-1.895 -35.54,19.12 -31.718,9.632c4.834,-12.002 -36.624,-45.458 -49.295,-50.794c-6.98,-2.939 3.279,35.784 7.933,58.281l-72.069,0Z" style="fill:#ff92b7;stroke:#000;stroke-width:3.5px;"/><path d="M563.331,353.088c1.547,3.893 11.814,13.382 14.387,13.438c2.573,0.056 -0.247,-10.471 1.051,-13.101c1.07,-2.168 6.451,-0.278 6.739,-2.678c0.302,-2.514 -2.083,-11.143 -4.929,-12.406c-2.845,-1.264 -9.268,2.367 -12.143,4.824c-2.827,2.418 -6.478,6.466 -5.105,9.923Z" style="fill:#ffe8d4;stroke:#000;stroke-width:3.5px;"/><path d="M370.732,268.382c-4.109,0.816 -15.299,9.195 -15.82,11.716c-0.521,2.52 10.343,1.652 12.694,3.405c1.938,1.445 -0.895,6.396 1.414,7.113c2.417,0.752 11.335,-0.032 13.093,-2.601c1.758,-2.57 -0.65,-9.544 -2.546,-12.816c-1.866,-3.218 -5.186,-7.542 -8.835,-6.817Z" style="fill:#ffe8d4;stroke:#000;stroke-width:3.5px;"/><path d="M484.157,152.86c-13.667,0 -27.381,6.994 -37.581,15.716c-17.134,14.65 -10.53,56.73 23.759,66.659c18.346,5.312 53.963,-0.102 67.823,-7.094c11.639,-5.872 15.337,-24.929 15.337,-34.857c0,-9.584 -6.796,-19.728 -15.337,-24.708c-11.557,-6.737 -38.737,-15.716 -54.001,-15.716Z" style="fill:#ffdcc5;stroke:#000;stroke-width:3.5px;"/><path d="M451.371,196.404c24.154,41.134 53.214,37.022 85.057,7.234" style="fill:none;stroke:#000;stroke-width:3.5px;"/><path d="M440.735,158.758c-0.849,3.514 -16.509,-5.146 -21.448,0c-7.928,8.26 3.221,31.786 8.88,40.959c7.764,12.586 5.82,34.53 -18.26,44.914c-13.555,5.845 -25.644,-11.621 -25.644,-13.946c0,-2.324 25.821,8.377 25.644,0c-0.64,-30.217 -27.971,-34.514 -32.245,-49.833c-3.816,-13.675 -6.75,-33.07 6.601,-42.078c16.821,-11.35 25.612,-7.34 35.024,-5.854c8.574,1.354 17.873,10.464 21.448,14.771c2.356,2.838 0.866,7.481 0,11.067Z" style="fill:#c45f00;stroke:#000;stroke-width:3.5px;"/><path d="M547.771,166.358c0.849,4.044 16.509,-5.922 21.448,0c7.928,9.505 -3.221,36.577 -8.88,47.133c-7.764,14.483 -5.82,39.735 18.26,51.684c13.555,6.726 25.644,-13.373 25.644,-16.047c0,-2.675 -25.821,9.639 -25.644,0c0.64,-34.772 27.971,-39.718 32.245,-57.346c3.816,-15.736 6.75,-38.054 -6.601,-48.421c-16.822,-13.061 -25.612,-8.447 -35.024,-6.736c-8.574,1.558 -17.873,12.041 -21.448,16.997c-2.356,3.267 -0.866,8.609 0,12.736Z" style="fill:#c45f00;stroke:#000;stroke-width:3.5px;"/><path d="M457.703,152.86c1.643,-1.634 15.163,-13.149 24.532,-13.901c13.912,-1.118 57.591,9.011 57.119,20.695c-0.176,4.387 -17.377,18.431 -14.067,22.578c2.934,3.677 -7.997,-21.367 -14.159,-22.578c-9.215,-1.811 -20.27,14.104 -22.346,13.253c-4.871,-1.997 -1.248,-17.578 -6.547,-20.047c-5.065,-2.36 -43.433,18.791 -24.532,0Z" style="fill:#bd6500;stroke:#000;stroke-width:3.5px;"/><ellipse cx="449.39" cy="157.042" rx="7.686" ry="8.047" style="fill:#52244a;stroke:#000;stroke-width:3.5px;"/><ellipse cx="544.056" cy="165.672" rx="7.686" ry="8.047" style="fill:#52244a;stroke:#000;stroke-width:3.5px;"/><path d="M471.779,179.314c0.98,0.171 1.611,1.254 1.407,2.417c-0.204,1.163 -1.165,1.967 -2.145,1.796c-0.98,-0.172 -1.61,-1.255 -1.406,-2.418c0.203,-1.163 1.164,-1.967 2.144,-1.795Z" style="fill:#1f1a19;stroke:#000;stroke-width:3px;"/><path d="M521.535,186.886c1.122,0.196 1.847,1.415 1.618,2.719c-0.228,1.304 -1.324,2.204 -2.445,2.008c-1.122,-0.197 -1.847,-1.415 -1.618,-2.72c0.228,-1.304 1.324,-2.204 2.445,-2.007Z" style="fill:#1f1a19;stroke:#000;stroke-width:3px;"/></g></g></svg>