<?xml version="1.0" encoding="UTF-8" standalone="no"?><!DOCTYPE svg PUBLIC "-//W3C//DTD SVG 1.1//EN" "http://www.w3.org/Graphics/SVG/1.1/DTD/svg11.dtd"><svg width="100%" height="100%" viewBox="0 0 474 463" version="1.1" xmlns="http://www.w3.org/2000/svg" xmlns:xlink="http://www.w3.org/1999/xlink" xml:space="preserve" style="fill-rule:evenodd;clip-rule:evenodd;stroke-linecap:round;stroke-linejoin:round;stroke-miterlimit:1.5;"><rect x="0" y="0" width="473.416" height="462.88" style="fill:#a5a2a2;"/><path d="M210.064,354.766c12.473,-25.197 43.062,-72.175 32.298,-71.479c-16.807,1.087 -73.304,15.971 -90.013,13.198c-10.374,-1.722 -8.024,-22.178 -10.243,-29.839c-1.35,-4.663 9.91,0.813 20.699,0c25.108,-1.891 66.958,-4.134 79.557,-6.112c4.403,-0.691 3.595,-9.413 7.815,-10.851c5.306,-1.809 17.884,-5.142 24.023,0c17.506,14.66 60.623,98.533 81.013,87.963c3.656,-1.895 -35.541,19.121 -31.719,9.633c4.835,-12.002 -36.623,-45.458 -49.294,-50.794c-6.98,-2.939 3.279,35.783 7.933,58.281l-72.069,0Z" style="fill:#ff92b7;stroke:#000;stroke-width:3.5px;"/><rect x="1.892" y="352.665" width="472.008" height="109.899" style="fill:#ec447d;"/><path d="M331.379,355.94c1.547,3.893 11.814,13.381 14.387,13.438c2.573,0.056 -0.248,-10.472 1.051,-13.101c1.07,-2.168 6.451,-0.278 6.739,-2.678c0.302,-2.514 -2.084,-11.143 -4.929,-12.406c-2.845,-1.264 -9.268,2.366 -12.143,4.824c-2.827,2.417 -6.478,6.466 -5.105,9.923Z" style="fill:#ffe8d4;stroke:#000;stroke-width:3.5px;"/><path d="M138.78,271.233c-4.109,0.817 -15.299,9.196 -15.82,11.716c-0.521,2.521 10.343,1.653 12.694,3.406c1.938,1.445 -0.895,6.395 1.413,7.113c2.418,0.752 11.336,-0.032 13.094,-2.602c1.758,-2.569 -0.65,-9.543 -2.547,-12.816c-1.865,-3.218 -5.186,-7.542 -8.834,-6.817Z" style="fill:#ffe8d4;stroke:#000;stroke-width:3.5px;"/><path d="M252.205,155.711c-13.667,0 -27.381,6.995 -37.582,15.717c-17.133,14.649 -10.529,56.73 23.76,66.658c18.345,5.312 53.962,-0.101 67.822,-7.093c11.64,-5.872 15.338,-24.93 15.338,-34.857c0,-9.585 -6.796,-19.729 -15.338,-24.708c-11.556,-6.738 -38.736,-15.717 -54,-15.717Z" style="fill:#ffdcc5;stroke:#000;stroke-width:3.5px;"/><path d="M219.419,199.256c24.154,41.134 53.214,37.022 85.057,7.234" style="fill:none;stroke:#000;stroke-width:3.5px;"/><path d="M208.782,161.61c-0.848,3.514 -16.508,-5.146 -21.447,0c-7.929,8.26 3.221,31.785 8.88,40.958c7.764,12.586 5.82,34.531 -18.261,44.914c-13.554,5.845 -25.643,-11.621 -25.643,-13.945c0,-2.324 25.821,8.376 25.643,0c-0.639,-30.217 -27.971,-34.515 -32.244,-49.833c-3.816,-13.676 -6.75,-33.07 6.601,-42.078c16.821,-11.35 25.612,-7.341 35.024,-5.855c8.574,1.354 17.873,10.465 21.447,14.771c2.357,2.839 0.867,7.482 0,11.068Z" style="fill:#c45f00;stroke:#000;stroke-width:3.5px;"/><path d="M315.819,169.21c0.849,4.044 16.509,-5.922 21.448,0c7.928,9.505 -3.222,36.577 -8.88,47.132c-7.765,14.484 -5.82,39.736 18.26,51.685c13.555,6.726 25.643,-13.373 25.643,-16.048c0,-2.674 -25.82,9.639 -25.643,0c0.639,-34.772 27.971,-39.717 32.245,-57.345c3.815,-15.737 6.75,-38.054 -6.602,-48.421c-16.821,-13.061 -25.611,-8.447 -35.023,-6.737c-8.575,1.558 -17.873,12.042 -21.448,16.998c-2.356,3.266 -0.866,8.609 0,12.736Z" style="fill:#c45f00;stroke:#000;stroke-width:3.5px;"/><path d="M225.751,155.711c1.643,-1.633 15.163,-13.148 24.531,-13.901c13.913,-1.117 57.591,9.011 57.12,20.696c-0.177,4.387 -17.378,18.431 -14.067,22.578c2.934,3.677 -7.998,-21.367 -14.159,-22.578c-9.215,-1.812 -20.27,14.104 -22.347,13.252c-4.87,-1.997 -1.247,-17.577 -6.547,-20.047c-5.064,-2.359 -43.432,18.791 -24.531,0Z" style="fill:#bd6500;stroke:#000;stroke-width:3.5px;"/><ellipse cx="217.437" cy="159.894" rx="7.686" ry="8.047" style="fill:#52244a;stroke:#000;stroke-width:3.5px;"/><ellipse cx="312.104" cy="168.524" rx="7.686" ry="8.047" style="fill:#52244a;stroke:#000;stroke-width:3.5px;"/><path d="M239.827,182.165c0.98,0.172 1.611,1.255 1.407,2.418c-0.204,1.163 -1.165,1.967 -2.145,1.795c-0.98,-0.171 -1.61,-1.254 -1.407,-2.417c0.204,-1.163 1.165,-1.967 2.145,-1.796Z" style="fill:#1f1a19;stroke:#000;stroke-width:3px;"/><path d="M289.583,189.738c1.121,0.196 1.846,1.414 1.618,2.719c-0.229,1.304 -1.324,2.204 -2.446,2.007c-1.121,-0.196 -1.846,-1.414 -1.617,-2.719c0.228,-1.304 1.324,-2.204 2.445,-2.007Z" style="fill:#1f1a19;stroke:#000;stroke-width:3px;"/></svg>