<?xml version="1.0" encoding="UTF-8" standalone="no"?><!DOCTYPE svg PUBLIC "-//W3C//DTD SVG 1.1//EN" "http://www.w3.org/Graphics/SVG/1.1/DTD/svg11.dtd"><svg width="100%" height="100%" viewBox="0 0 141 347" version="1.1" xmlns="http://www.w3.org/2000/svg" xmlns:xlink="http://www.w3.org/1999/xlink" xml:space="preserve" style="fill-rule:evenodd;clip-rule:evenodd;stroke-linejoin:round;stroke-miterlimit:1.41421;"><g><path d="M105.448,0c19.4,0 35.15,8.954 35.15,19.983l0,321.176l-140.598,0l0,-321.176c0,-11.029 15.75,-19.983 35.149,-19.983l70.299,0Z" style="fill:#d92c01;"/><g><path d="M23.918,34.408c0.152,-12.435 16.907,-11.281 16.771,0l0,20.48l-16.771,0l0,-20.48Z" style="fill:#fff;"/><path d="M23.941,73.872c0.151,-12.435 16.907,-11.281 16.77,0l0,20.48l-16.77,0l0,-20.48Z" style="fill:#fff;"/><path d="M23.963,113.336c0.151,-12.435 16.907,-11.28 16.77,0l0,20.48l-16.77,0l0,-20.48Z" style="fill:#fff;"/><path d="M23.985,152.8c0.152,-12.435 16.907,-11.28 16.771,0l0,20.48l-16.771,0l0,-20.48Z" style="fill:#fff;"/><path d="M50.261,34.408c0.151,-12.435 16.907,-11.281 16.77,0l0,20.48l-16.77,0l0,-20.48Z" style="fill:#fff;"/><path d="M50.283,73.872c0.152,-12.435 16.907,-11.281 16.771,0l0,20.48l-16.771,0l0,-20.48Z" style="fill:#fff;"/><path d="M50.306,113.336c0.151,-12.435 16.906,-11.28 16.77,0l0,20.48l-16.77,0l0,-20.48Z" style="fill:#fff;"/><path d="M50.328,152.8c0.151,-12.435 16.907,-11.28 16.77,0l0,20.48l-16.77,0l0,-20.48Z" style="fill:#fff;"/><path d="M76.603,34.408c0.152,-12.435 16.907,-11.281 16.771,0l0,20.48l-16.771,0l0,-20.48Z" style="fill:#fff;"/><path d="M76.626,73.872c0.151,-12.435 16.907,-11.281 16.77,0l0,20.48l-16.77,0l0,-20.48Z" style="fill:#fff;"/><path d="M76.648,113.336c0.152,-12.435 16.907,-11.28 16.771,0l0,20.48l-16.771,0l0,-20.48Z" style="fill:#fff;"/><path d="M76.671,152.8c0.151,-12.435 16.906,-11.28 16.77,0l0,20.48l-16.77,0l0,-20.48Z" style="fill:#fff;"/><path d="M101.224,34.408c0.152,-12.435 16.907,-11.281 16.771,0l0,20.48l-16.771,0l0,-20.48Z" style="fill:#fff;"/><path d="M101.247,73.872c0.151,-12.435 16.907,-11.281 16.77,0l0,20.48l-16.77,0l0,-20.48Z" style="fill:#fff;"/><path d="M101.269,113.336c0.152,-12.435 16.907,-11.28 16.771,0l0,20.48l-16.771,0l0,-20.48Z" style="fill:#fff;"/><path d="M101.292,152.8c0.151,-12.435 16.906,-11.28 16.77,0l0,20.48l-16.77,0l0,-20.48Z" style="fill:#fff;"/></g><path d="M33.186,265.947c0.669,-49.018 74.741,-44.467 74.137,0l0,80.725l-74.137,0l0,-80.725Z" style="fill:#fff;"/></g></svg>