<?xml version="1.0" encoding="UTF-8" standalone="no"?><!DOCTYPE svg PUBLIC "-//W3C//DTD SVG 1.1//EN" "http://www.w3.org/Graphics/SVG/1.1/DTD/svg11.dtd"><svg width="100%" height="100%" viewBox="0 0 829 464" version="1.1" xmlns="http://www.w3.org/2000/svg" xmlns:xlink="http://www.w3.org/1999/xlink" xml:space="preserve" style="fill-rule:evenodd;clip-rule:evenodd;stroke-linecap:round;stroke-linejoin:round;stroke-miterlimit:1.5;"><g><rect x="0.187" y="0" width="827.635" height="462.88" style="fill:#ebebeb;"/><g><path d="M272.5,335.408c4.372,-1.126 10.842,8.734 10.842,11.19c0,2.456 -10.042,1.689 -10.842,3.549c-0.8,1.859 6.904,5.197 6.043,7.608c-0.861,2.411 -7.637,7.592 -11.21,6.86c-3.572,-0.733 -14.357,-8.543 -10.224,-11.255c7.682,-5.041 11.019,-16.825 15.391,-17.952Z" style="fill:#ffe8d4;stroke:#000;stroke-width:3px;"/><path d="M181.207,169.647c-6.166,-5.034 -19.874,-6.879 -23.879,0c-12.978,22.292 -29.407,49.512 -40.691,75.912c-11.568,27.065 -23.157,69.957 -28.719,86.476c-1.433,4.256 -8.025,9.675 -4.654,12.641c3.859,3.395 23.898,7.285 27.81,7.731c8.385,0.954 34.161,-114.138 39.395,-117.534c5.234,-3.395 -14.336,100.822 -7.988,97.162c7.687,-4.432 66.56,0.818 66.441,0c-2.441,-16.782 -19.975,-90.903 -18.906,-97.162c1.068,-6.259 15.045,40.621 25.316,59.608c10.597,19.589 27.458,55.043 38.264,57.926c4.96,1.323 20.48,-12.024 17.342,-20.372c-2.39,-6.355 -16.023,-24.857 -23.594,-37.554c-9.268,-15.542 -24.263,-40.813 -32.012,-55.698c-5.633,-10.819 -9.081,-22.669 -14.48,-33.607c-5.688,-11.523 -12.391,-29.608 -19.645,-35.529Z" style="fill:#4b0041;stroke:#000;stroke-width:3px;"/><path d="M113.375,82.756c-10.082,22.892 -4.476,47.322 0,56.672c8.695,18.161 36.684,23.158 60.524,23.918c32.603,1.039 60.239,-21.078 58.871,-56.172c-0.75,-19.224 -14.965,-46.811 -38.074,-52.621c-53.767,-13.517 -73.424,10.274 -81.321,28.203Z" style="fill:#ffdcc5;stroke:#000;stroke-width:3px;"/><path d="M115.295,119.514c0,0 15.085,23.759 27.457,27.914c24.055,8.077 70.723,0.559 77.969,-27.914" style="fill:none;stroke:#000;stroke-width:3px;"/><path d="M115.466,78.441l-2.091,-11.232c-3.095,-4.385 -7.339,-6.727 -12.681,-7.119c4.745,-2.847 9.68,-4.47 14.772,-5.078l-2.091,-9.334c5.565,-2.758 11.148,-2.175 16.739,0c1.569,-3.496 1.67,-7.635 0,-12.551c5.166,-0.554 9.698,2.06 13.849,6.578c2.167,-2.04 2.167,-5.846 0,-11.418c7.06,1.797 13.621,5.839 19.842,11.418l3.605,-11.418l16.106,11.418l0,-11.418c5.54,1.785 10.944,5.736 16.238,11.418l4.627,-6.578c5.712,2.794 14.717,6.871 16.758,12.551c2.041,5.68 -4.514,21.531 -4.514,21.531c-14.612,-11.701 -30.819,-20.091 -52.82,-16.453c-15.638,0.002 -29.318,4.398 -39.582,16.453l-8.757,11.232Z" style="fill:#1f1a19;stroke:#000;stroke-width:3px;"/><ellipse cx="148.781" cy="88.258" rx="1.803" ry="2.139" style="fill:#1f1a19;stroke:#000;stroke-width:3px;"/><ellipse cx="199.098" cy="87.394" rx="2.062" ry="2.399" style="fill:#1f1a19;stroke:#000;stroke-width:3px;"/></g></g><path d="M142.092,330.128c-7.564,34.8 -7.728,68.158 0,99.978l31.673,0c4.208,-19.241 2.525,-38.359 0,-57.46l9.802,57.46l34.129,0c-0.26,-33.667 -3.581,-67.034 -11.223,-99.978l-64.381,0Z" style="fill:#1d002e;stroke:#000;stroke-width:6.5px;"/><rect x="0" y="352.768" width="828.288" height="110.916" style="fill:#4b0041;"/><path d="M82.807,345.488c-4.302,2.266 -1.816,15.808 0,20.044c1.596,3.722 8.342,5.821 10.896,5.373c2.554,-0.449 1.943,-6.72 4.428,-8.064c2.485,-1.344 8.737,1.818 10.484,0c1.748,-1.818 3.63,-10.696 0,-10.907c-14.68,-0.855 -21.507,-8.713 -25.808,-6.446Z" style="fill:#ffe8d4;stroke:#000;stroke-width:3px;"/></svg>