<?xml version="1.0" encoding="UTF-8" standalone="no"?><!DOCTYPE svg PUBLIC "-//W3C//DTD SVG 1.1//EN" "http://www.w3.org/Graphics/SVG/1.1/DTD/svg11.dtd"><svg width="100%" height="100%" viewBox="0 0 472 464" version="1.1" xmlns="http://www.w3.org/2000/svg" xmlns:xlink="http://www.w3.org/1999/xlink" xml:space="preserve" style="fill-rule:evenodd;clip-rule:evenodd;stroke-linecap:round;stroke-linejoin:round;stroke-miterlimit:1.5;"><rect x="0.187" y="0" width="469.903" height="462.88" style="fill:#9d9d9d;"/><path d="M191.233,327.173l0,39.158l29.086,0l0,-22.031l4.922,22.031l26.598,0l-4.688,-35.033l-55.918,-4.125Z" style="fill:#00336b;stroke:#000;stroke-width:3.5px;"/><path d="M227.319,194.935l-19.148,0c-21.323,39.665 -45.788,76.825 -72.195,112.435c2.717,6.735 8.569,11.006 16.007,14.03c17.89,-21.62 34.269,-46.28 48.397,-75.467c0,0 -12.318,39.53 -14.781,53.265c-1.716,9.564 0,29.149 0,29.149c25.885,5.377 51.747,6.316 77.574,0c-2.666,-35.457 -10.779,-71.118 -23.809,-106.961c29.299,11.142 59.092,21.321 89.645,30.019c7.087,-4.796 8.588,-14.659 10.746,-23.927c-37.175,-12.158 -74.686,-22.867 -112.436,-32.543Z" style="fill:#e90009;stroke:#000;stroke-width:3.5px;"/><path d="M139.387,312.991c-4.189,0 -16.798,6.038 -17.8,8.409c-1.002,2.37 9.822,3.636 11.787,5.814c1.619,1.795 -2.124,6.098 0,7.252c2.225,1.209 11.125,2.178 13.35,0c2.225,-2.178 1.222,-9.487 0,-13.066c-1.203,-3.52 -3.617,-8.409 -7.337,-8.409Z" style="fill:#ffe8d4;stroke:#000;stroke-width:3.5px;"/><path d="M332.612,252.239c3.446,2.383 17.251,4.59 19.423,3.21c2.173,-1.379 -6.01,-8.578 -6.387,-11.487c-0.31,-2.397 5.216,-3.807 4.125,-5.964c-1.142,-2.26 -7.91,-8.119 -10.979,-7.594c-3.069,0.526 -6.402,7.108 -7.433,10.747c-1.013,3.579 -1.808,8.972 1.251,11.088Z" style="fill:#ffe8d4;stroke:#000;stroke-width:3.5px;"/><path d="M171.376,130.234c-1.646,-23.401 24.255,-42.48 39.611,-45.952c15.357,-3.471 41.22,7.577 52.528,25.121c-19.261,3.559 -31.83,8.53 -34.823,15.522c-17.078,0.813 -35.899,2.448 -57.316,5.309Z" style="fill:#e50017;stroke:#000;stroke-width:3.5px;"/><path d="M268.226,109.403c14.916,0.971 24.892,3.696 32.712,7.186c-5.567,6.208 -16.06,10.42 -32.712,12.135c-15.748,-4.314 -29.768,-2.384 -39.569,-4.119c11.397,-11.239 26.252,-14.554 39.569,-15.202Z" style="fill:#b90012;stroke:#000;stroke-width:3.5px;"/><path d="M268.776,129.489l8.877,7.641l-3.431,0l3.431,6.709l-3.431,4.777l3.431,6.383l-3.431,0l0,5.69l-5.446,0l0,-31.2Z" style="fill:#714313;stroke:#000;stroke-width:3.5px;"/><path d="M171.46,135.769c-14.639,27.524 17.458,54.541 49.641,54.633c17.755,0.05 39.511,-10.249 44.584,-25.872c3.423,-10.543 7.433,-26.762 0,-33.255c-7.525,-6.573 -30.674,-7.291 -44.584,-5.729c-15.624,1.754 -44.565,0.679 -49.641,10.223Z" style="fill:#ffdcc5;stroke:#000;stroke-width:3.5px;"/><path d="M171.46,131.275c-4.586,3.397 -13.759,10.193 -15.693,12.232c-0.938,0.987 4.084,-1.361 4.084,0c0,1.704 -4.956,8.519 -4.084,10.223c0.871,1.703 7.535,2.545 9.314,0c2.616,-3.743 5.124,-16.218 6.379,-22.455" style="fill:#714313;stroke:#000;stroke-width:3.5px;"/><path d="M196.279,161.094c3.712,19.856 20.343,20.8 39.348,6.939c4.54,-3.31 5.427,-8.138 10.661,-12.981" style="fill:none;stroke:#000;stroke-width:3px;"/><ellipse cx="196.488" cy="143.671" rx="1.803" ry="2.139" style="fill:#1f1a19;stroke:#000;stroke-width:3px;"/><ellipse cx="246.805" cy="142.807" rx="2.062" ry="2.399" style="fill:#1f1a19;stroke:#000;stroke-width:3px;"/><rect x="0" y="352.768" width="471.169" height="110.916" style="fill:#b90012;"/></svg>