<?xml version="1.0" encoding="UTF-8" standalone="no"?><!DOCTYPE svg PUBLIC "-//W3C//DTD SVG 1.1//EN" "http://www.w3.org/Graphics/SVG/1.1/DTD/svg11.dtd"><svg width="100%" height="100%" viewBox="0 0 829 464" version="1.1" xmlns="http://www.w3.org/2000/svg" xmlns:xlink="http://www.w3.org/1999/xlink" xml:space="preserve" style="fill-rule:evenodd;clip-rule:evenodd;stroke-linecap:round;stroke-linejoin:round;stroke-miterlimit:1.5;"><g><rect x="0.187" y="0" width="827.635" height="462.88" style="fill:#ebebeb;"/><rect x="0" y="352.768" width="828.288" height="110.916" style="fill:#b90012;"/><g><path d="M343.183,315.966l0,39.158l29.086,0l0,-22.031l4.922,22.031l26.598,0l-4.688,-35.033l-55.918,-4.125Z" style="fill:#00336b;stroke:#000;stroke-width:3.5px;"/><path d="M379.269,183.728l-19.148,0c-21.324,39.665 -45.788,76.825 -72.196,112.435c2.717,6.735 8.57,11.005 16.008,14.029c17.89,-21.619 34.268,-46.28 48.397,-75.466c0,0 -12.318,39.53 -14.782,53.265c-1.715,9.564 0,29.149 0,29.149c25.885,5.377 51.748,6.316 77.575,0c-2.666,-35.458 -10.78,-71.118 -23.809,-106.961c29.299,11.141 59.092,21.32 89.644,30.019c7.088,-4.796 8.589,-14.659 10.747,-23.927c-37.175,-12.158 -74.686,-22.867 -112.436,-32.543Z" style="fill:#e90009;stroke:#000;stroke-width:3.5px;"/><path d="M291.337,301.784c-4.189,0 -16.798,6.038 -17.8,8.408c-1.003,2.371 9.822,3.637 11.787,5.815c1.619,1.795 -2.124,6.098 0,7.252c2.225,1.208 11.124,2.178 13.349,0c2.225,-2.178 1.223,-9.488 0,-13.067c-1.202,-3.519 -3.616,-8.408 -7.336,-8.408Z" style="fill:#ffe8d4;stroke:#000;stroke-width:3.5px;"/><path d="M484.562,241.032c3.446,2.383 17.25,4.59 19.423,3.21c2.173,-1.379 -6.01,-8.578 -6.387,-11.487c-0.311,-2.397 5.216,-3.807 4.125,-5.964c-1.142,-2.26 -7.911,-8.119 -10.979,-7.594c-3.069,0.526 -6.403,7.107 -7.433,10.747c-1.013,3.579 -1.808,8.972 1.251,11.088Z" style="fill:#ffe8d4;stroke:#000;stroke-width:3.5px;"/><path d="M323.326,119.026c-1.646,-23.401 24.255,-42.479 39.611,-45.951c15.356,-3.471 41.219,7.577 52.527,25.121c-19.26,3.559 -31.829,8.53 -34.822,15.522c-17.078,0.812 -35.9,2.448 -57.316,5.308Z" style="fill:#e50017;stroke:#000;stroke-width:3.5px;"/><path d="M420.175,98.196c14.917,0.971 24.892,3.696 32.713,7.186c-5.567,6.208 -16.06,10.42 -32.713,12.135c-15.747,-4.315 -29.768,-2.384 -39.568,-4.12c11.396,-11.238 26.252,-14.554 39.568,-15.201Z" style="fill:#b90012;stroke:#000;stroke-width:3.5px;"/><path d="M420.726,118.282l8.877,7.641l-3.432,0l3.432,6.709l-3.432,4.777l3.432,6.383l-3.432,0l0,5.689l-5.445,0l0,-31.199Z" style="fill:#714313;stroke:#000;stroke-width:3.5px;"/><path d="M323.41,124.562c-14.64,27.524 17.458,54.541 49.64,54.632c17.756,0.051 39.512,-10.248 44.584,-25.871c3.424,-10.543 7.434,-26.762 0,-33.256c-7.524,-6.572 -30.674,-7.29 -44.584,-5.728c-15.624,1.754 -44.565,0.679 -49.64,10.223Z" style="fill:#ffdcc5;stroke:#000;stroke-width:3.5px;"/><path d="M323.41,120.067c-4.587,3.398 -13.759,10.194 -15.694,12.233c-0.937,0.987 4.084,-1.362 4.084,0c0,1.704 -4.955,8.519 -4.084,10.222c0.872,1.704 7.536,2.545 9.315,0c2.615,-3.742 5.124,-16.217 6.379,-22.455" style="fill:#714313;stroke:#000;stroke-width:3.5px;"/><path d="M348.228,149.887c3.713,19.856 20.344,20.8 39.349,6.939c4.539,-3.311 5.427,-8.138 10.661,-12.982" style="fill:none;stroke:#000;stroke-width:3px;"/><ellipse cx="348.438" cy="132.464" rx="1.803" ry="2.139" style="fill:#1f1a19;stroke:#000;stroke-width:3px;"/><ellipse cx="398.754" cy="131.6" rx="2.062" ry="2.399" style="fill:#1f1a19;stroke:#000;stroke-width:3px;"/></g></g></svg>