<?xml version="1.0" encoding="UTF-8" standalone="no"?><!DOCTYPE svg PUBLIC "-//W3C//DTD SVG 1.1//EN" "http://www.w3.org/Graphics/SVG/1.1/DTD/svg11.dtd"><svg width="100%" height="100%" viewBox="0 0 474 463" version="1.1" xmlns="http://www.w3.org/2000/svg" xmlns:xlink="http://www.w3.org/1999/xlink" xml:space="preserve" style="fill-rule:evenodd;clip-rule:evenodd;stroke-linecap:round;stroke-linejoin:round;stroke-miterlimit:1.5;"><g><rect x="0" y="0" width="473.416" height="462.88" style="fill:#c8c1c1;"/><g><path d="M182.238,331.324c5.708,8.642 14.324,15.203 23.544,21.33c19.562,-30.701 39.044,-63.236 58.315,-100.552c-6.031,26.382 -9.764,51.867 -9.376,75.743l52.689,0c-0.873,-32.273 -4.853,-64.376 -11.23,-96.348c30.972,32.225 53.367,65.441 65.654,99.827c12.502,0.983 21.133,-4.987 27.727,-14.615c-26.945,-40.265 -59.325,-76.544 -93.381,-111.595c-6.768,-9.03 -17.432,-9.101 -32.083,0c-25.37,47.228 -52.664,89.278 -81.859,126.21Z" style="fill:#82b514;stroke:#000;stroke-width:3.5px;"/><path d="M190.983,341.405c-4.573,-1.753 -14.113,-1.753 -15.361,0c-1.248,1.752 7.255,7.396 7.872,10.516c0.596,3.01 -5.416,5.644 -4.168,8.205c1.248,2.561 7.701,8.53 11.657,7.163c3.956,-1.368 12.078,-11.054 12.078,-15.368c0,-4.314 -7.505,-8.764 -12.078,-10.516Z" style="fill:#ffe8d4;stroke:#000;stroke-width:3.5px;"/><path d="M378.024,348.982c4.573,1.753 14.113,1.753 15.361,0c1.248,-1.753 -7.255,-7.396 -7.872,-10.517c-0.596,-3.009 5.416,-5.643 4.167,-8.204c-1.248,-2.561 -7.701,-8.53 -11.656,-7.163c-3.956,1.368 -12.078,11.053 -12.078,15.367c0,4.314 7.505,8.764 12.078,10.517Z" style="fill:#ffe8d4;stroke:#000;stroke-width:3.5px;"/><path d="M254.731,327.316c-0.459,16.177 -0.973,33.076 -5.107,52.036c20.037,-0.306 40.063,-0.384 60.065,0c-5.269,-16.713 -5.784,-34.151 -3.358,-52.036l-51.6,0Z" style="fill:#43640e;stroke:#000;stroke-width:3.5px;"/><path d="M283.762,46.609c-22.288,-0.181 -62.919,10.985 -76.872,40.63c-12.593,26.755 11.83,95.049 0,92.005c-11.831,-3.044 -16.793,-4.094 -14.331,0c11.11,18.483 56.686,38.221 70.374,28.747c7.102,-4.915 15.143,-7.86 20.829,-8.306c4.796,-0.375 12.725,9.629 13.287,5.634c1.833,-13.038 52.852,-9.406 55.548,-9.036c2.562,0.351 -12.154,-11.798 -8.78,-17.039c9.155,-14.219 11.056,-52.175 13.11,-78.428c2.826,-36.131 -37.865,-49.902 -73.165,-54.207" style="fill:#9c2b04;stroke:#000;stroke-width:3px;"/><path d="M223.85,146.37c-0.655,-19.11 65.74,-51.613 91.954,-57.884c2.89,-0.691 5.951,0.213 8.915,0c15.807,-1.134 31.665,41.254 15.506,70.6c-10.464,19.002 -39.297,24.717 -54.538,23.89c-22.807,-1.236 -61.031,-13.096 -61.837,-36.606Z" style="fill:#ffdcc5;stroke:#000;stroke-width:3.5px;"/><path d="M237.125,141.018c12.738,36.798 45.584,42.149 79.008,21.192c7.984,-5.006 8.394,-13.561 17.319,-21.192" style="fill:none;stroke:#000;stroke-width:3px;"/><ellipse cx="257.523" cy="125.215" rx="1.803" ry="2.139" style="fill:#1f1a19;stroke:#000;stroke-width:3px;"/><ellipse cx="307.839" cy="124.351" rx="2.062" ry="2.399" style="fill:#1f1a19;stroke:#000;stroke-width:3px;"/></g><rect x="1.022" y="352.785" width="472.008" height="109.899" style="fill:#3b5209;"/></g></svg>