<?xml version="1.0" encoding="UTF-8" standalone="no"?><!DOCTYPE svg PUBLIC "-//W3C//DTD SVG 1.1//EN" "http://www.w3.org/Graphics/SVG/1.1/DTD/svg11.dtd"><svg width="100%" height="100%" viewBox="0 0 829 464" version="1.1" xmlns="http://www.w3.org/2000/svg" xmlns:xlink="http://www.w3.org/1999/xlink" xml:space="preserve" style="fill-rule:evenodd;clip-rule:evenodd;stroke-linecap:round;stroke-linejoin:round;stroke-miterlimit:1.5;"><g><rect x="0.187" y="0" width="827.635" height="462.88" style="fill:#ebebeb;"/><g><path d="M164.547,316.508c5.708,8.643 14.324,15.203 23.544,21.331c19.562,-30.701 39.044,-63.237 58.315,-100.552c-6.03,26.381 -9.764,51.866 -9.376,75.742l52.689,0c-0.873,-32.273 -4.852,-64.376 -11.229,-96.348c30.971,32.225 53.367,65.441 65.653,99.827c12.502,0.983 21.133,-4.987 27.727,-14.615c-26.944,-40.265 -59.324,-76.544 -93.38,-111.595c-6.769,-9.03 -17.432,-9.101 -32.084,0c-25.369,47.229 -52.663,89.279 -81.859,126.21Z" style="fill:#82b514;stroke:#000;stroke-width:3.5px;"/><path d="M173.292,326.589c-4.573,-1.753 -14.113,-1.753 -15.361,0c-1.248,1.753 7.255,7.397 7.873,10.517c0.595,3.009 -5.417,5.643 -4.168,8.204c1.248,2.561 7.701,8.53 11.656,7.163c3.956,-1.367 12.078,-11.053 12.078,-15.367c0,-4.314 -7.504,-8.764 -12.078,-10.517Z" style="fill:#ffe8d4;stroke:#000;stroke-width:3.5px;"/><path d="M360.333,334.166c4.573,1.753 14.113,1.753 15.361,0c1.248,-1.752 -7.255,-7.396 -7.872,-10.516c-0.596,-3.009 5.416,-5.644 4.168,-8.205c-1.248,-2.561 -7.701,-8.53 -11.657,-7.162c-3.956,1.367 -12.077,11.053 -12.077,15.367c0,4.314 7.504,8.764 12.077,10.516Z" style="fill:#ffe8d4;stroke:#000;stroke-width:3.5px;"/><path d="M266.071,31.793c-22.288,-0.181 -62.919,10.985 -76.872,40.631c-12.592,26.754 11.83,95.049 0,92.004c-11.83,-3.044 -16.792,-4.094 -14.331,0c11.111,18.483 56.686,38.221 70.374,28.747c7.102,-4.915 15.143,-7.86 20.829,-8.305c4.796,-0.376 12.726,9.628 13.287,5.634c1.834,-13.039 52.852,-9.406 55.549,-9.037c2.562,0.352 -12.155,-11.798 -8.78,-17.039c9.154,-14.219 11.056,-52.174 13.109,-78.428c2.826,-36.131 -37.864,-49.901 -73.165,-54.207" style="fill:#9c2b04;stroke:#000;stroke-width:3px;"/><path d="M206.16,131.555c-0.656,-19.111 65.74,-51.614 91.953,-57.884c2.891,-0.692 5.951,0.212 8.915,0c15.808,-1.135 31.666,41.253 15.506,70.599c-10.463,19.002 -39.297,24.717 -54.537,23.891c-22.807,-1.237 -61.031,-13.097 -61.837,-36.606Z" style="fill:#ffdcc5;stroke:#000;stroke-width:3.5px;"/><path d="M219.435,126.202c12.737,36.798 45.583,42.149 79.007,21.192c7.984,-5.006 8.395,-13.561 17.319,-21.192" style="fill:none;stroke:#000;stroke-width:3px;"/><ellipse cx="239.832" cy="110.399" rx="1.803" ry="2.139" style="fill:#1f1a19;stroke:#000;stroke-width:3px;"/><ellipse cx="290.148" cy="109.535" rx="2.062" ry="2.399" style="fill:#1f1a19;stroke:#000;stroke-width:3px;"/></g><path d="M237.041,312.5c-0.46,16.178 -0.973,33.076 -5.107,52.037c20.037,-0.307 40.062,-0.385 60.065,0c-5.27,-16.714 -5.784,-34.151 -3.358,-52.037l-51.6,0Z" style="fill:#43640e;stroke:#000;stroke-width:3.5px;"/><rect x="0" y="352.768" width="828.288" height="110.916" style="fill:#3b5209;"/></g></svg>