<?xml version="1.0" encoding="UTF-8" standalone="no"?><!DOCTYPE svg PUBLIC "-//W3C//DTD SVG 1.1//EN" "http://www.w3.org/Graphics/SVG/1.1/DTD/svg11.dtd"><svg width="100%" height="100%" viewBox="0 0 265 374" version="1.1" xmlns="http://www.w3.org/2000/svg" xmlns:xlink="http://www.w3.org/1999/xlink" xml:space="preserve" style="fill-rule:evenodd;clip-rule:evenodd;stroke-linecap:round;stroke-linejoin:round;stroke-miterlimit:1.5;"><ellipse cx="133.779" cy="352.381" rx="15.407" ry="15.698" style="fill:#ebebeb;fill-opacity:0.580392;"/><rect x="16.201" y="39.56" width="232.892" height="295.094" style="fill:#fff;"/><path d="M61.228,144.496c-1.038,5.132 -20.187,-7.517 -26.227,0c-9.695,12.064 3.94,46.426 10.859,59.824c9.494,18.383 7.117,50.435 -22.329,65.602c-16.575,8.537 -15.244,-16.974 -15.244,-20.369c0,-3.395 15.46,12.235 15.244,0c-0.782,-44.135 -12.704,-48.763 -15.244,-68.967c-2.166,-17.225 -0.295,-26.071 0,-52.256c0.297,-26.416 17.891,-21.574 26.714,-21.574c8.824,0 21.856,15.284 26.227,21.574c2.882,4.146 1.059,10.928 0,16.166Z" style="fill:#c45f00;stroke:#000;stroke-width:3.5px;"/><path d="M114.326,135.88c-16.712,0 -33.482,10.217 -45.955,22.956c-20.952,21.397 -12.876,82.86 29.054,97.362c22.433,7.759 65.986,-0.149 82.934,-10.361c14.234,-8.576 18.755,-36.412 18.755,-50.912c0,-13.999 -8.31,-28.816 -18.755,-36.089c-14.131,-9.841 -47.368,-22.956 -66.033,-22.956Z" style="fill:#ffdcc5;stroke:#000;stroke-width:3.5px;"/><path d="M74.235,199.482c29.536,60.081 65.071,54.075 104.01,10.566" style="fill:none;stroke:#000;stroke-width:3.5px;"/><path d="M192.115,155.596c1.038,5.907 20.187,-8.649 26.227,0c9.695,13.884 -3.939,53.425 -10.859,68.842c-9.494,21.155 -7.116,58.039 22.33,75.491c16.575,9.824 31.357,-19.532 31.357,-23.439c0,-3.906 -31.574,14.079 -31.357,0c0.781,-50.788 26.13,-57.316 31.357,-83.064c4.654,-22.93 -2.178,-44.903 0,-71.419c2.296,-27.96 -31.319,-12.338 -42.828,-9.84c-10.485,2.276 -21.856,17.589 -26.227,24.827c-2.881,4.771 -1.059,12.575 0,18.602Z" style="fill:#c45f00;stroke:#000;stroke-width:3.5px;"/><path d="M81.978,135.88c2.009,-2.385 18.541,-19.204 29.997,-20.304c17.013,-1.632 70.424,13.162 69.848,30.228c-0.216,6.408 -21.25,26.92 -17.202,32.978c3.588,5.37 -9.78,-31.209 -17.314,-32.978c-11.268,-2.645 -24.787,20.601 -27.326,19.357c-5.955,-2.917 -1.526,-25.674 -8.006,-29.281c-6.192,-3.446 -53.11,27.446 -29.997,0Z" style="fill:#bd6500;stroke:#000;stroke-width:3.5px;"/><ellipse cx="71.812" cy="141.989" rx="9.399" ry="11.753" style="fill:#52244a;stroke:#000;stroke-width:3.5px;"/><ellipse cx="187.572" cy="154.594" rx="9.399" ry="11.753" style="fill:#52244a;stroke:#000;stroke-width:3.5px;"/><path d="M99.19,174.519c1.199,0.251 1.97,1.833 1.721,3.531c-0.249,1.698 -1.425,2.874 -2.623,2.623c-1.198,-0.251 -1.969,-1.833 -1.72,-3.531c0.249,-1.699 1.424,-2.874 2.622,-2.623Z" style="fill:#1f1a19;stroke:#000;stroke-width:3px;"/><path d="M160.033,185.579c1.371,0.287 2.258,2.067 1.978,3.972c-0.279,1.905 -1.619,3.219 -2.99,2.932c-1.371,-0.287 -2.257,-2.066 -1.978,-3.972c0.279,-1.905 1.619,-3.219 2.99,-2.932Z" style="fill:#1f1a19;stroke:#000;stroke-width:3px;"/><path d="M248.556,39.689l-232.948,294.67l232.948,0l0,-294.67Z" style="fill:#458ce2;fill-opacity:0.133333;"/><path d="M235.066,0c16.517,0.001 29.925,13.409 29.925,29.925l0,313.181c0,16.516 -13.409,29.926 -29.925,29.926l-205.141,0c-16.516,0 -29.925,-13.41 -29.925,-29.926l0,-313.181c0,-16.516 13.409,-29.924 29.925,-29.925l205.141,0Zm13.43,38.728l-232.892,0l0,295.094l232.892,0l0,-295.094Z" style="fill:#2b3e51;"/></svg>