<?xml version="1.0" encoding="UTF-8" standalone="no"?><!DOCTYPE svg PUBLIC "-//W3C//DTD SVG 1.1//EN" "http://www.w3.org/Graphics/SVG/1.1/DTD/svg11.dtd"><svg width="100%" height="100%" viewBox="0 0 364 366" version="1.1" xmlns="http://www.w3.org/2000/svg" xmlns:xlink="http://www.w3.org/1999/xlink" xml:space="preserve" style="fill-rule:evenodd;clip-rule:evenodd;stroke-linecap:round;stroke-linejoin:round;stroke-miterlimit:1.5;"><g><path d="M113.835,162.35c-1.001,11.15 15.634,36.317 21.564,60.242c4.817,19.437 -0.704,65.8 0,66.526c5.675,5.851 49.327,7.121 79.767,0c11.368,-2.659 6.8,-45.763 10.713,-66.526c4.43,-23.505 20.245,-50.818 20.245,-60.242c0,-8.109 -18.05,2.46 -24.325,0c-6.172,-2.42 -6.697,-14.763 -13.326,-14.763c-6.994,0 -19.277,14.763 -28.64,14.763c-9.364,0 -17.126,-14.763 -27.542,-14.763c-4.599,0 -11.86,0.19 -18.842,1.411c-9.719,1.698 -18.899,5.394 -19.614,13.352Z" style="fill:#d0173b;stroke:#0a0909;stroke-width:4.5px;"/><path d="M223.778,268.151c-4.446,0 -7.457,8.341 -12.453,8.341c-5.083,0 -11.42,-8.341 -18.047,-8.341c-7.076,0 -18.171,8.341 -24.411,8.341c-5.158,0 -8.5,-8.341 -13.032,-8.341c-4.531,0 -8.681,8.341 -14.159,8.341c-6.882,0 -20.451,-10.335 -27.138,-8.341c-6.686,1.993 -8.492,15.301 -12.981,20.302c-4.49,5 -10.493,4.048 -13.953,9.7c-3.461,5.653 -1.535,17.557 0,24.214c1.364,5.918 5.747,13.103 9.208,15.724c3.07,2.325 11.367,-3.847 11.555,0c0.571,11.726 10.41,20.868 19.377,18.505c6.75,-1.779 16.166,-12.329 20.995,-7.357c6.843,7.046 11.075,13.381 20.128,13.555c10.543,0.203 19.643,-10.184 24.411,-13.555c4.191,-2.963 13.49,7.357 18.047,7.357c4.557,0 11.549,-12.495 12.453,-7.357c0.534,3.039 12.292,12.036 23.833,7.357c6.009,-2.436 9.2,-15.421 13.438,-18.505c3.231,-2.352 8.292,1.518 11.989,0c8.15,-3.346 7.6,-18.542 0,-26.818c-3.417,-3.721 9.587,-9.316 7.589,-13.12c-1.998,-3.803 -14.188,-4.802 -19.578,-9.7c-5.503,-5.001 -9.597,-18.309 -13.438,-20.302c-3.764,-1.954 -5.637,8.341 -9.609,8.341c-3.972,0 -9.778,-8.341 -14.224,-8.341Z" style="fill:#ccc;stroke:#000;stroke-width:4.5px;"/><path d="M68.856,285.638c-0.195,0.282 -43.739,14.324 -37.268,24.356c7.29,11.303 60.178,26.219 58.351,27.078c-5.161,2.43 -82.106,-10.409 -89.599,-27.078c-6.086,-13.541 71.48,-28.639 68.516,-24.356Z" style="fill:#333;"/><path d="M87.833,291.765c-0.099,0.198 -22.198,10.046 -18.914,17.082c3.7,7.927 30.541,18.388 29.614,18.991c-2.62,1.704 -41.67,-7.301 -45.472,-18.991c-3.089,-9.496 36.276,-20.085 34.772,-17.082Z" style="fill:#333;"/><path d="M294.296,286.333c0.195,0.282 43.739,14.324 37.268,24.357c-7.29,11.303 -60.178,26.218 -58.351,27.078c5.161,2.429 82.107,-10.41 89.599,-27.078c6.086,-13.541 -71.48,-28.639 -68.516,-24.357Z" style="fill:#333;"/><path d="M268.408,285.514c0.151,0.235 33.857,11.928 28.848,20.283c-5.643,9.412 -46.582,21.833 -45.168,22.549c3.995,2.023 63.556,-8.669 69.355,-22.549c4.712,-11.276 -55.33,-23.849 -53.035,-20.283Z" style="fill:#333;"/><path d="M48.244,151.044c5.697,0.619 -27.931,-9.921 -33.014,-21.057c-8.48,-18.578 15.46,-29.615 16.303,-37.066c1.607,-14.196 25.691,-19.025 27.05,-33.247c2.227,-23.309 22.198,-34.322 44.685,-25.224c7.154,2.895 6.459,-8.549 10.192,-14.001c10.879,-15.89 22.837,-11.193 38.633,-5.171c6.614,2.522 7.609,-14.389 24.354,-12.94c22.455,1.944 16.659,17.493 24.761,12.94c11.673,-6.56 27.105,-7.325 34.635,0c8.352,8.125 8.522,24.581 16.219,19.172c6.7,-4.709 26.576,-15.9 30.32,15.552c0.854,7.169 16.663,5.888 25.473,9.672c7.157,3.074 7.283,11.068 10.407,16.969c3.584,6.767 25.198,16.45 27.821,27.33c3.365,13.959 -12.874,29.459 -14.615,38.724c-1.193,6.347 0.572,17.953 -4.251,22.732c-6.564,6.504 -20.641,5.603 -27.546,10.138c-5.255,3.452 -10.889,12.306 -17.289,14.336c-8.043,2.551 -16.865,-1.997 -22.789,0c-7.837,2.642 -21.254,11.259 -23.75,7.18c-2.496,-4.079 12.975,-23.981 8.776,-31.654c-2.145,-3.919 -11.471,2.534 -18.088,0c-6.338,-2.427 -9.885,-13.912 -15.883,-14.385c-8.238,-0.65 -22.784,12.591 -34.201,14.385c-9.956,1.565 -16.809,-8.416 -24.354,-7.299c-7.291,1.079 -13.891,5.927 -21.137,7.299c-5.638,1.068 -11.942,-1.432 -17.496,0c-4.84,1.249 14.452,22.053 8.046,24.474c-6.667,2.52 -20.135,1.406 -28.325,-7.651c-9.479,-10.484 -30.618,0.446 -34.598,0c-5.975,-0.669 -14.321,-3.511 -20.722,-6.685c-13.897,-6.89 -2.418,-25.914 10.383,-24.523Z" style="fill:#ccc;stroke:#000;stroke-width:4.5px;"/></g></svg>