<?xml version="1.0" encoding="UTF-8" standalone="no"?><!DOCTYPE svg PUBLIC "-//W3C//DTD SVG 1.1//EN" "http://www.w3.org/Graphics/SVG/1.1/DTD/svg11.dtd"><svg width="100%" height="100%" viewBox="0 0 482 455" version="1.1" xmlns="http://www.w3.org/2000/svg" xmlns:xlink="http://www.w3.org/1999/xlink" xml:space="preserve" style="fill-rule:evenodd;clip-rule:evenodd;stroke-linecap:round;stroke-linejoin:round;stroke-miterlimit:1.5;"><g><path d="M22.654,215.527c-3.612,42.236 0.748,71.664 21.006,80.72c5.735,2.564 13.219,-1.422 17.76,-6.551c18.635,98.309 61.292,163.609 140.615,161.974c74.684,-6.427 111.459,-64.85 124.792,-155.423c12.566,7.267 27.783,-5.571 34.762,-14.835c6.978,-9.265 7.109,-40.75 7.109,-40.75c-26.521,4.022 -39.32,-33.868 -35.416,-86.515c-115.779,7.765 -159.035,-4.306 -229.962,-32.222c-10.549,46.764 -24.397,78.506 -41.9,93.602c-14.923,12.467 -27.363,9.468 -38.766,0Z" style="fill:#fff6e6;stroke:#000;stroke-width:5px;"/><path d="M4.37,204.377c6.5,7.351 41.333,23.982 55.33,12.242c16.273,-13.649 42.312,-94.138 42.312,-94.138c0,0 65.264,23.355 112.112,30.741c41.621,6.562 80.108,-1.861 109.245,0c39.385,2.514 88.251,29.811 114.172,19.292c17.734,-7.197 44.95,-33.711 41.047,-37.794c-15.853,-16.584 -75.164,-23.21 -121.41,-60c-86.274,-68.633 -126.725,-67.383 -170.586,-71.366c-47.28,-4.293 -99.243,31.306 -126.892,59.5c-27.65,28.193 -29.781,86.072 -39.003,109.66c-4.319,11.046 -22.828,24.512 -16.327,31.863Z" style="fill:#979797;stroke:#000;stroke-width:6px;"/><path d="M171.164,337.955c1.804,-2.9 10.965,-9.14 17.139,-19.671c8.304,-14.165 13.506,-29.924 18.009,-25.194c2.308,2.425 6.438,8.479 9.163,6.845c1.103,-0.662 7,-10.593 10.001,-6.845c3.298,4.119 2.201,37.106 10.712,49.778c6.059,9.021 5.032,5.449 7.192,9.97c1.134,2.373 -4.42,0.509 -7.192,0c-2.578,-0.474 -8.015,1.909 -10.712,8.865c-5.576,14.381 -14.221,31.684 -27.4,29.059c-22.214,-4.425 -22.613,-34.675 -18.811,-52.807c0.5,-2.384 -9.412,2.108 -8.101,0Z" style="fill:#150000;stroke:#000;stroke-width:1px;"/><path d="M184.885,360.982l30.59,10.214c-3.779,6.075 -9.294,9.059 -16.718,8.648c-10.829,-2.257 -17.287,-9.255 -13.872,-18.862Z" style="fill:#fff;"/><path d="M195.486,318.599c0,1.799 10.706,0.693 12.847,0c1.426,-0.461 -0.381,-4.156 0,-4.156c0.382,0 0.697,3.628 2.289,4.156c2.088,0.693 8.531,2.314 10.238,0c1.706,-2.313 0.406,-11.264 0,-13.882c-0.148,-0.952 -1.619,-2.429 -2.437,-1.827c-1.784,1.312 -8.077,4.964 -10.09,4.915c-7.339,-4.343 -12.847,8.995 -12.847,10.794Z" style="fill:#fffbfb;"/><path d="M333.031,150.734c-4.759,30.772 1.665,67.566 21.23,84.746c23.392,8.506 40.918,4.289 53.468,-10.723l-24.144,-56.274c-6.842,-6.332 -22.827,-13.789 -50.554,-17.749Z" style="fill:#979797;stroke:#000;stroke-width:6.5px;"/><path d="M153.031,199.323c19.125,-7.952 30.854,0.985 39.299,11.094" style="fill:none;stroke:#010100;stroke-width:2.5px;"/><path d="M256.602,215.053c30.197,-14.597 37.599,-2.573 40.839,3.963" style="fill:none;stroke:#010100;stroke-width:2.5px;"/><path d="M67.266,97.594c90.504,59.45 187.903,83.407 297.806,42.999" style="fill:none;stroke:#000;stroke-width:8px;"/><path d="M130.794,367.128c38.527,71.309 81.453,86.607 131.215,24.319" style="fill:none;stroke:#000;stroke-width:7.5px;"/><path d="M51.513,232.093c4.388,9.37 2.237,14.717 -5.688,17.915c-3.643,6.309 1.811,13.003 9.423,20.045" style="fill:none;stroke:#000;stroke-width:4.5px;"/><path d="M347.513,245.106c-5.525,8.85 -4.053,14.387 3.422,18.393c2.834,6.648 -3.416,12.728 -11.855,18.929" style="fill:none;stroke:#000;stroke-width:4.5px;"/><path d="M206.246,194.112c5.499,9.785 5.414,19.936 0,30.437" style="fill:none;stroke:#010100;stroke-width:2.5px;"/><path d="M245.726,202.036c-6.615,9.187 -7.72,19.288 -3.569,30.261" style="fill:none;stroke:#010100;stroke-width:2.5px;"/><path d="M137.949,207.908c13.069,16.832 29.428,21.687 50.495,9.402" style="fill:none;stroke:#010100;stroke-width:5px;"/><path d="M143.693,195.404c22.615,-11.045 39.903,-9.741 50.541,9.193" style="fill:none;stroke:#010100;stroke-width:4.5px;"/><path d="M255.372,208.094c22.615,-11.045 39.902,-9.741 50.54,9.193" style="fill:none;stroke:#010100;stroke-width:4px;"/><path d="M255.017,221.493c17.278,17.344 34.046,21.418 50.983,6.839" style="fill:none;stroke:#010100;stroke-width:4px;"/><ellipse cx="171.806" cy="203.255" rx="5.646" ry="5.409" style="fill:#fff;stroke:#010100;stroke-width:2.5px;"/><ellipse cx="172.094" cy="204.748" rx="4.548" ry="4.044"/><ellipse cx="199.254" cy="268.373" rx="5.027" ry="3.792" style="stroke:#010100;stroke-width:2.5px;"/><ellipse cx="237.337" cy="271.053" rx="5.027" ry="3.792" style="stroke:#010100;stroke-width:2.5px;"/><ellipse cx="283.293" cy="214.04" rx="6.166" ry="5.429" style="fill:#fff;stroke:#010100;stroke-width:2.5px;"/><ellipse cx="283.519" cy="215.856" rx="4.48" ry="4.044"/><path d="M329.037,231.124c-6.047,-0.302 -11.894,-2.711 -17.522,-7.432" style="fill:none;stroke:#010100;stroke-width:2.5px;"/><path d="M115.109,187.66c4.885,4.276 10.692,6.381 16.967,7.387" style="fill:none;stroke:#010100;stroke-width:3.5px;"/><path d="M110.287,206.114c7.199,-0.308 14.465,-2.533 21.789,-6.384" style="fill:none;stroke:#010100;stroke-width:3.5px;"/><path d="M329.46,213.67c-7.359,0.578 -13.317,2.537 -18.001,5.755" style="fill:none;stroke:#010100;stroke-width:2.5px;"/><path d="M145.607,154.781l-30.234,-3.721l11.111,16.555l-19.261,12.928l15.441,-0.276l9.339,13.915l10.821,-27.445l16.79,8.913l4.051,-11.906l15.155,9.939l9.277,-6.226l13.112,4.543l3.979,-26.938l-15.208,10.207l-16.277,-9.258l-9.276,6.226l-15.723,-10.784l-3.097,13.328Z" style="fill:#fff;stroke:#010100;stroke-width:5px;"/><path d="M250.464,158.383l0.602,20.487l16.347,-0.613l7.629,16.449l9.239,-13.987l8.777,14.476l10.745,-1.582l7.081,13.356l25.172,-0.542l-8.989,-12.846l6.258,-9.475l-22.441,-1.214l6.258,-9.475l-13.011,5.015l-2.969,-23.271l-19.949,15.043l-7.57,-25.517l-13.338,20.196l-9.841,-6.5Z" style="fill:#fff;stroke:#000;stroke-width:5px;"/><path d="M168.328,316.384c-0.293,-22.946 6.612,-44.418 21.565,-64.241c-6.418,7.545 -8.604,14.055 0,17.93c0,0 6.489,-5.352 11.016,-4.348c8.871,1.966 0.955,15.009 17.232,16.209c6.932,0.511 12.613,-13.554 18.382,-14.013c5.517,-0.439 6.444,7.195 13.859,2.152c2.408,-3.337 1.305,-6.663 0,-9.988c8.543,20.905 9.242,42.629 0,65.389" style="fill:none;stroke:#000;stroke-width:4.5px;"/><path d="M47.901,297.587c-12.2,-1.75 -14.516,26.819 -14.79,28.348c-1.354,7.55 34.675,2.246 38.203,8.541c2.987,5.33 -9.727,-26.917 -10.008,-43.664c-0.05,-2.966 -8.911,7.42 -13.405,6.775Z" style="fill:#979797;stroke:#000;stroke-width:5px;"/><path d="M342.572,297.33c-10.654,2.807 9.591,48.29 9.627,50.977c0.062,4.689 -35.447,-0.726 -35.222,-3.035c0.808,-8.294 3.618,-16.457 5.736,-30.505c1.434,-9.507 2.727,-17.564 4.293,-17.437c4.039,0.326 19.629,-1.071 15.566,0Z" style="fill:#979797;stroke:#000;stroke-width:4px;"/><path d="M28.627,143.674c21.968,7.904 42.675,10.04 65.558,7.564" style="fill:none;stroke:#010100;stroke-width:5.5px;"/><path d="M23.318,165.506c23.178,6.881 46.693,-1.135 67.95,-6.192" style="fill:none;stroke:#010100;stroke-width:5.5px;"/><path d="M14.017,187.419c28.643,5.337 50.997,-2.657 72.043,-13.423" style="fill:none;stroke:#010100;stroke-width:5.5px;"/><path d="M337.651,185.962c27.538,10.392 46.268,13.941 58.381,12.351" style="fill:none;stroke:#010100;stroke-width:4.5px;"/><path d="M333.512,198.309c16.007,7.158 48.023,21.473 69.514,14.543" style="fill:none;stroke:#010100;stroke-width:4.5px;"/><path d="M102.784,80.978c23.718,22.79 48.409,35.28 74.119,36.976" style="fill:none;stroke:#010100;stroke-width:4.5px;"/><path d="M117.647,64.966c29.36,29.893 64.569,37.529 99.385,37.689" style="fill:none;stroke:#010100;stroke-width:6px;"/></g></svg>