<?xml version="1.0" encoding="UTF-8" standalone="no"?><!DOCTYPE svg PUBLIC "-//W3C//DTD SVG 1.1//EN" "http://www.w3.org/Graphics/SVG/1.1/DTD/svg11.dtd"><svg width="100%" height="100%" viewBox="0 0 2728 1406" version="1.1" xmlns="http://www.w3.org/2000/svg" xmlns:xlink="http://www.w3.org/1999/xlink" xml:space="preserve" style="fill-rule:evenodd;clip-rule:evenodd;stroke-linecap:round;stroke-linejoin:round;stroke-miterlimit:1.5;"><rect x="0" y="0" width="2723.69" height="1119.95" style="fill:#ffc549;"/><path d="M1884.58,17.311l-991.623,1121.48l1834.49,0l0,-1121.48l-842.864,0Z" style="fill:#449bb1;"/><path d="M1311.61,668.061l-414.227,474.373l-896.86,0l0,-774.418l1311.09,300.045Z" style="fill:#44b18b;"/><rect x="0.597" y="1140.3" width="2723.69" height="264.984" style="fill:#030303;"/><g><rect x="425.34" y="485.088" width="79.627" height="79.113" style="fill:#b6b3cb;"/><rect x="447.178" y="415.543" width="33.386" height="71.267" style="fill:#b6b3cb;"/><path d="M212.922,814.619c18.515,-143.509 120.986,-253.445 244.459,-253.445c123.472,0 225.944,109.936 244.458,253.445l-488.917,0Z" style="fill:#b6b3cb;"/><rect x="144.306" y="898.501" width="641.707" height="42.405" style="fill:#b6b3cb;"/><rect x="134.531" y="1100.15" width="641.707" height="42.405" style="fill:#b6b3cb;"/><rect x="154.682" y="940.126" width="40.579" height="161.432" style="fill:#b6b3cb;"/><rect x="211.633" y="814.68" width="32.592" height="85.214" style="fill:#b6b3cb;"/><rect x="236.487" y="940.126" width="40.579" height="161.432" style="fill:#b6b3cb;"/><rect x="277.337" y="814.68" width="32.592" height="85.214" style="fill:#b6b3cb;"/><rect x="318.292" y="940.126" width="40.579" height="161.432" style="fill:#b6b3cb;"/><rect x="343.04" y="814.68" width="32.592" height="85.214" style="fill:#b6b3cb;"/><rect x="400.097" y="940.126" width="40.579" height="161.432" style="fill:#b6b3cb;"/><rect x="408.744" y="814.68" width="32.592" height="85.214" style="fill:#b6b3cb;"/><rect x="481.902" y="940.126" width="40.579" height="161.432" style="fill:#b6b3cb;"/><rect x="474.448" y="814.68" width="32.592" height="85.214" style="fill:#b6b3cb;"/><rect x="563.707" y="940.126" width="40.579" height="161.432" style="fill:#b6b3cb;"/><rect x="540.151" y="814.68" width="32.592" height="85.214" style="fill:#b6b3cb;"/><rect x="645.512" y="940.126" width="40.579" height="161.432" style="fill:#b6b3cb;"/><rect x="605.855" y="814.68" width="32.592" height="85.214" style="fill:#b6b3cb;"/><rect x="727.317" y="940.126" width="40.579" height="161.432" style="fill:#b6b3cb;"/><rect x="671.558" y="814.68" width="32.592" height="85.214" style="fill:#b6b3cb;"/></g><path d="M2334.25,347.901l-31,794.275l174.045,0l-24.126,-794.275l-118.919,0Z" style="fill:#b6b3cb;"/><path d="M2392.3,282.498l0,859.678" style="fill:none;stroke:#5786ba;stroke-width:5px;"/><path d="M2394.48,276.237l-58.205,65.235l112.884,0l-54.679,-65.235Z" style="fill:#b6b3cb;"/><path d="M888.028,15.864l420.306,655.735l577.037,-655.735l-997.343,0Z" style="fill:#ee3a3a;"/><g><path d="M1691.99,973.232c-79.702,93.039 -198.483,152.106 -331.055,152.106c-132.573,0 -251.354,-59.067 -331.055,-152.106l662.11,0Z" style="fill:#d0173b;stroke:#010100;stroke-width:4.5px;"/><path d="M1783.46,794.593c-16.312,67.811 -48.791,129.426 -93.161,180.601l-658.729,0c-44.37,-51.175 -76.849,-112.789 -93.161,-180.601l845.051,0Z" style="fill:#fff;stroke:#010100;stroke-width:4.5px;"/><path d="M1788.14,615.953c4.707,25.401 7.166,51.578 7.166,78.321c0,35.236 -4.269,69.49 -12.322,102.28l-844.098,0c-8.054,-32.79 -12.323,-67.044 -12.323,-102.28c0,-26.743 2.459,-52.92 7.166,-78.321l854.411,0Z" style="fill:#d0173b;stroke:#010100;stroke-width:4.5px;"/><path d="M1709.63,437.313c39.25,52.347 66.821,113.818 78.871,180.601l-855.129,0c12.05,-66.783 39.621,-128.254 78.871,-180.601l697.387,0Z" style="fill:#fff;stroke:#010100;stroke-width:4.5px;"/><path d="M1011.97,439.377c79.097,-106.741 206.533,-176.065 350.156,-176.065c143.623,0 271.059,69.324 350.155,176.065l-700.311,0Z" style="fill:#d0173b;stroke:#010100;stroke-width:4.5px;"/></g></svg>