<?xml version="1.0" encoding="UTF-8" standalone="no"?><!DOCTYPE svg PUBLIC "-//W3C//DTD SVG 1.1//EN" "http://www.w3.org/Graphics/SVG/1.1/DTD/svg11.dtd"><svg width="100%" height="100%" viewBox="0 0 655 854" version="1.1" xmlns="http://www.w3.org/2000/svg" xmlns:xlink="http://www.w3.org/1999/xlink" xml:space="preserve" style="fill-rule:evenodd;clip-rule:evenodd;stroke-linecap:round;stroke-linejoin:round;stroke-miterlimit:1.5;"><path d="M395.821,851.197l-142.172,0l35.543,-108.844l71.086,0l35.543,108.844Z" style="fill:#f24c3a;stroke:#000;stroke-width:4px;"/><ellipse cx="327.394" cy="428.098" rx="325.144" ry="319.338" style="fill:#6194f1;stroke:#010100;stroke-width:4.5px;"/><path d="M370.944,111.605c22.099,2.91 43.499,8.005 63.965,15.055l13.222,197.671l200.518,54.267c2.561,16.133 3.89,32.665 3.89,49.5c0,5.117 -0.123,10.207 -0.366,15.266l-191.933,62.007l13.893,207.723c-16.339,8.139 -33.47,14.961 -51.248,20.325l-147.695,-168.265l-199.868,64.57c-14.126,-17.01 -26.504,-35.474 -36.864,-55.127l110.257,-153.535l-114.711,-130.687c11.674,-23.922 26.292,-46.199 43.392,-66.376l178.202,48.227l115.346,-160.621Z" style="fill:#fff;stroke:#010100;stroke-width:4px;"/><path d="M382.644,105.273c-18.76,-3.785 -38.167,-5.771 -58.034,-5.771c-17.938,0 -35.5,1.619 -52.549,4.719l55.008,-101.971l55.575,103.023Z" style="fill:#f24c3a;stroke:#010100;stroke-width:4.5px;"/></svg>